<?xml version="1.0" encoding="utf-8"?>
<!-- Generator: Adobe Illustrator 27.5.0, SVG Export Plug-In . SVG Version: 6.00 Build 0)  -->
<svg version="1.1" id="Layer_1" xmlns="http://www.w3.org/2000/svg" xmlns:xlink="http://www.w3.org/1999/xlink" x="0px" y="0px"
	 viewBox="0 0 500 350" style="enable-background:new 0 0 500 350;" xml:space="preserve">
<rect x="0.001" y="1.256" style="fill:#FFFFFF;" width="499.999" height="350"/>
<path style="fill:#473D2E;" d="M128.711,224.745c-1.642-1.788-3.232-3.634-4.714-5.582c-0.153-0.205-0.306-0.409-0.46-0.62
	c0.817,0.3,1.642,0.568,2.465,0.799c0.709,0.204,1.418,0.383,2.146,0.536c0.9,1.137,1.827,2.255,2.791,3.348
	c-0.402,0.325-0.824,0.639-1.252,0.913l-0.019,0.006l-0.032,0.02C129.337,224.362,129.018,224.561,128.711,224.745z
	 M131.432,227.601c0.121-0.083,0.249-0.159,0.364-0.236c0.352-0.249,0.69-0.498,1.016-0.76c1.38-1.073,2.581-2.294,3.622-3.59
	c1.284-1.533,2.235-3.252,2.944-4.989c5.11-0.146,10.003-1.099,14.57-2.434c6.592-1.98,12.615-4.804,17.866-8.387
	c5.238-3.57,9.773-7.889,12.775-13.024c1.469-2.587,2.58-5.372,2.964-8.233c0.243-1.431,0.205-2.868,0.128-4.286
	c-0.153-1.399-0.396-2.791-0.85-4.082c-0.843-2.606-2.197-4.912-3.756-6.892c-1.578-1.98-3.322-3.653-5.117-5.155
	c-3.667-2.977-7.831-4.822-11.868-5.512c-1.252-0.224-2.484-0.326-3.692-0.326c-2.683,0-5.225,0.523-7.39,1.418
	c-5.947,2.395-13.548,11.759-10.508,18.568c1.29,2.894,4.126,4.618,7.097,4.618c1.054,0,2.127-0.217,3.155-0.677
	c3.916-1.744,5.679-6.33,3.941-10.252c-1.29-2.881-4.133-4.605-7.103-4.605c-0.843,0-1.699,0.141-2.53,0.434
	c0.243-0.364,0.499-0.722,0.779-1.079c1.444-1.706,3.462-3.411,6.184-4.453c1.839-0.715,3.986-1.137,6.285-1.137
	c1.08,0,2.172,0.083,3.309,0.294c3.539,0.6,7.269,2.21,10.591,4.88c3.315,2.715,6.579,6.209,8.048,10.712
	c1.571,4.478,0.703,9.779-2.063,14.347c-2.753,4.618-7.078,8.605-12.118,11.817c-5.046,3.206-10.878,5.697-17.144,7.128
	c-3.373,0.741-6.905,1.189-10.45,1.189c-0.581,0-1.169-0.013-1.75-0.045c0.249-1.865,0.243-3.698,0-5.397
	c-0.447-3.188-1.712-5.934-3.392-7.844c-1.654-1.942-3.66-2.996-5.334-3.532c-1.673-0.543-3.059-0.626-3.967-0.678
	c-0.926,0-1.405,0.013-1.405,0.013s0.479,0,1.405,0.02c0.907,0.077,2.28,0.198,3.929,0.773c1.635,0.568,3.577,1.66,5.154,3.596
	c1.591,1.903,2.753,4.605,3.124,7.723c0.185,1.667,0.16,3.462-0.128,5.289c-2.21-0.121-4.395-0.428-6.541-0.958
	c-0.792-0.186-1.559-0.46-2.338-0.678c-0.747-0.293-1.52-0.543-2.249-0.9c-1.475-0.619-2.861-1.424-4.146-2.331
	c-2.587-1.814-4.695-4.146-6.241-6.86c-0.798-1.329-1.386-2.805-1.929-4.286c-0.109-0.422-0.243-0.817-0.364-1.22
	c0-0.007,0-0.014,0-0.014c-0.108-0.357-0.211-0.715-0.288-1.085c-0.191-0.799-0.37-1.585-0.46-2.345
	c-0.096-0.594-0.153-1.194-0.191-1.795c0-0.058,0-0.102-0.013-0.16c-0.025-0.612-0.038-1.232-0.019-1.839v-0.013
	c0.006-0.263,0.013-0.518,0.032-0.773c0.083-1.533,0.313-3.065,0.722-4.58c1.527-6.081,5.231-11.977,9.92-17.361
	c4.708-5.385,10.431-10.354,16.569-14.538c3.104-2.012,6.298-3.864,9.709-5.436c0.434-0.211,0.843-0.428,1.277-0.613l1.329-0.518
	l2.645-1.079c0.869-0.383,1.814-0.626,2.721-0.945l2.759-0.913c7.455-2.249,15.305-3.546,23.225-4.376
	c7.921-0.843,15.943-1.175,23.954-1.419c7.99-0.236,16.07-0.376,23.94-0.709c7.768-0.3,15.86-0.632,23.928-2.063
	c4.037-0.754,8.08-1.82,12.009-3.302c3.935-1.476,7.741-3.622,11.134-6.209c0.823-0.684,1.692-1.316,2.472-2.044
	c0.754-0.76,1.501-1.507,2.248-2.261c0.377-0.364,0.716-0.767,1.035-1.188l0.978-1.233c0.645-0.824,1.297-1.622,1.846-2.568
	c2.325-3.647,3.788-7.601,4.51-11.562c0.032-0.141,0.051-0.281,0.076-0.421l0,0c0-0.006,0-0.006,0-0.006
	c0.097-0.639,0.192-1.278,0.256-1.904c0-0.025,0-0.051,0.013-0.083c0.205-1.942,0.236-3.871,0.103-5.781
	c-0.013-0.013-0.013-0.013-0.013-0.019l0,0c-0.083-1.214-0.243-2.427-0.473-3.615c-0.767-3.833-2.313-7.493-4.548-10.591
	c-2.236-3.111-5.161-5.583-8.291-7.294c-0.806-0.39-1.61-0.754-2.39-1.137c-0.396-0.198-0.83-0.326-1.239-0.485
	c-0.428-0.153-0.837-0.288-1.265-0.396c-1.647-0.485-3.271-0.76-4.854-0.939c-1.355-0.166-2.695-0.23-3.998-0.23
	c-1.751,0-3.463,0.121-5.123,0.338c-2.913,0.364-5.698,1.048-8.323,1.999c-2.612,0.952-5.085,2.197-7.237,3.82
	c-2.159,1.616-4.063,3.577-5.302,5.87c-1.277,2.28-1.903,4.784-1.954,7.128c-0.052,1.987,0.268,3.826,0.728,5.538l0,0
	c0.103,0.319,0.18,0.639,0.269,0.939c0.645,1.967,1.546,3.781,2.721,5.295c0.218,0.294,0.46,0.568,0.71,0.837
	c0.21,0.23,0.428,0.434,0.644,0.651l0,0h0.007c0.862,0.831,1.795,1.533,2.804,2.012c1.38,0.703,2.855,1.009,4.229,1.009
	c0.173,0,0.345-0.013,0.524-0.02c3.13-0.223,6.54-2.102,8.693-4.746c0.013-0.013,0.013-0.013,0.018-0.026
	c0.236-0.287,0.473-0.6,0.671-0.913c0.007-0.006,0.02-0.013,0.02-0.02c0.217-0.319,0.402-0.639,0.562-0.971l0.013-0.013
	c1.067-2.07,1.354-4.42,0.319-6.739c-1.277-2.894-4.126-4.618-7.096-4.618c-1.055,0-2.128,0.217-3.149,0.671
	c-2.529,1.13-4.158,3.449-4.523,5.998l0,0l0,0c-0.058,0.351-0.083,0.703-0.083,1.054v0.013c0,0.352,0.013,0.703,0.058,1.054
	c0.013,0.019,0.013,0.038,0.013,0.064c0.045,0.3,0.103,0.594,0.191,0.894c0.007,0.077,0.038,0.16,0.058,0.224
	c0.096,0.319,0.211,0.639,0.345,0.952c0.173,0.396,0.377,0.754,0.594,1.099c0.039,0.064,0.097,0.115,0.141,0.179
	c0.205,0.287,0.409,0.556,0.639,0.805c0.026,0.038,0.064,0.064,0.09,0.096c0.256,0.275,0.543,0.524,0.83,0.754
	c0.013,0,0.02,0.013,0.026,0.019c0.319,0.249,0.651,0.466,0.996,0.658h0.006l0,0c1.143,0.639,2.44,1.003,3.77,1.003
	c0.395,0,0.785-0.032,1.182-0.096c-0.269,0.166-0.563,0.326-0.869,0.466c-0.983,0.435-2.114,0.703-3.321,0.703
	c-0.07,0-0.153,0-0.218,0c-1.277-0.051-2.618-0.421-3.826-1.194c-0.28-0.173-0.562-0.377-0.823-0.594l0,0
	c-0.096-0.077-0.179-0.16-0.256-0.23c-0.166-0.147-0.332-0.3-0.492-0.447c-0.096-0.102-0.185-0.198-0.274-0.3
	c-0.153-0.167-0.294-0.333-0.447-0.511c-0.063-0.089-0.141-0.179-0.217-0.275c-0.204-0.281-0.409-0.568-0.594-0.869
	c-0.837-1.36-1.432-2.97-1.802-4.708c-0.352-1.756-0.505-3.609-0.262-5.423c0.255-1.821,0.92-3.564,2.024-5.11
	c2.21-3.085,6.126-5.238,10.616-6.298c2.37-0.575,4.95-0.888,7.569-0.888c2.287,0,4.612,0.243,6.873,0.748
	c1.201,0.274,2.389,0.613,3.456,1.086c0.274,0.102,0.543,0.217,0.785,0.351c0.256,0.128,0.512,0.23,0.761,0.409
	c0.504,0.3,1.003,0.613,1.514,0.926c1.903,1.367,3.5,3.085,4.656,5.142c1.156,2.044,1.872,4.408,2.102,6.918
	c0.025,0.357,0.025,0.728,0.038,1.092l0,0c0.013,0.517,0,1.041-0.025,1.565c0,0.057,0,0.127-0.006,0.185
	c-0.02,0.466-0.058,0.939-0.122,1.405c-0.025,0.205-0.063,0.409-0.089,0.613c-0.051,0.345-0.108,0.696-0.179,1.054
	c-0.122,0.569-0.256,1.15-0.422,1.718c-0.729,2.504-1.936,4.893-3.526,6.886c-0.332,0.517-0.836,1.016-1.328,1.507l-0.703,0.747
	c-0.229,0.256-0.466,0.498-0.74,0.703c-0.537,0.441-1.061,0.882-1.591,1.322c-0.543,0.422-1.162,0.773-1.732,1.169
	c-2.389,1.469-5.008,2.715-7.99,3.545c-2.958,0.837-6.126,1.431-9.48,1.795c-3.366,0.326-6.866,0.485-10.521,0.517
	c-0.447,0-0.907,0-1.366,0c-3.22,0-6.541-0.07-9.978-0.128c-3.896-0.07-7.818-0.153-11.792-0.224
	c-3.967-0.083-8.022-0.179-12.142-0.198c-1.169-0.013-2.332-0.013-3.514-0.013c-7.148,0-14.519,0.186-22.069,0.85
	c-4.42,0.415-8.93,0.971-13.452,1.795l0,0c-0.115,0.006-0.236,0.039-0.345,0.058c-3.232,0.594-6.477,1.31-9.735,2.197
	c-1.118,0.3-2.236,0.632-3.36,0.983c-1.124,0.383-2.249,0.76-3.36,1.137c-1.124,0.396-2.255,0.715-3.347,1.207
	c-1.099,0.46-2.185,0.919-3.283,1.373l-1.648,0.684c-0.537,0.249-1.061,0.53-1.597,0.798c-4.267,2.057-8.381,4.503-12.245,7.186
	c-7.588,5.487-14.065,11.977-19.291,19.463c-1.303,1.872-2.517,3.813-3.616,5.832c-1.111,2.006-2.108,4.088-2.964,6.241
	c-0.875,2.133-1.59,4.363-2.146,6.637c-0.568,2.267-0.939,4.605-1.105,6.955c-0.179,2.351-0.128,4.728,0.172,7.059
	c0.275,2.332,0.798,4.631,1.552,6.803c0.358,1.105,0.792,2.121,1.227,3.13c0.421,1.003,0.971,1.98,1.469,2.951
	c1.099,1.91,2.274,3.775,3.711,5.442c2.811,3.359,6.279,6.1,10.009,7.914c0.626,0.313,1.258,0.6,1.91,0.869
	c0.134,0.064,0.287,0.114,0.428,0.172c1.105,0.447,2.216,0.837,3.347,1.143c1.903,0.563,3.833,0.933,5.749,1.149
	c1.814,0.224,3.615,0.314,5.384,0.314c0.211,0,0.428,0,0.646-0.013c-0.703,1.559-1.597,3.066-2.785,4.427
	c-0.862,1.016-1.827,1.974-2.9,2.861l0,0c-0.217,0.166-0.435,0.332-0.651,0.498c-0.319,0.249-0.639,0.479-0.984,0.703
	c-1.737,1.162-3.666,2.146-5.774,2.823c-2.095,0.689-4.305,1.207-6.604,1.373c-0.824,0.064-1.661,0.102-2.497,0.102
	c-1.489,0-3.009-0.115-4.516-0.332c-2.377-0.364-4.701-1.035-6.969-2.019c-2.281-0.939-4.459-2.21-6.56-3.635
	c-2.133-1.405-4.113-3.085-6.023-4.855c-1.922-1.77-3.66-3.75-5.321-5.819c-1.623-2.102-3.066-4.344-4.356-6.7
	c-1.239-2.37-2.242-4.874-2.925-7.441l-0.447-1.955l-0.293-2.024l-0.281-2.019l-0.128-2.044c-0.357-5.462,0.089-11,1.175-16.385
	c2.178-10.763,6.86-20.989,13.408-29.204c0.862-0.99,1.654-2.031,2.549-2.977c0.907-0.913,1.775-1.878,2.721-2.753
	c0.971-0.85,1.891-1.718,2.874-2.529c1.022-0.799,2.019-1.591,3.028-2.376c1.003-0.798,1.993-1.571,2.977-2.351
	c1.016-0.741,2.057-1.418,3.066-2.127c1.029-0.696,2.038-1.386,3.041-2.07l0.747-0.511l0.786-0.46
	c0.511-0.307,1.035-0.613,1.546-0.913c8.176-4.931,16.301-8.54,24.043-11.031c1.903-0.722,3.839-1.201,5.723-1.737
	c1.865-0.524,3.692-1.099,5.532-1.45c1.814-0.409,3.59-0.805,5.34-1.182c1.751-0.326,3.468-0.581,5.148-0.862
	c5.94-0.952,11.408-1.482,16.397-1.763l-0.352,0.14c-1.386,0.569-2.785,1.137-4.164,1.712c-2.74,1.258-5.519,2.415-8.214,3.813
	c-4.42,2.14-8.738,4.554-12.954,7.167c0.102-0.032,0.205-0.058,0.319-0.109l3.36-1.13l0.039-0.019l0.038-0.006
	c7.391-2.3,15.311-3.858,24.682-4.861l1.559-0.606l2.044-0.722c10.834-3.871,21.871-6.809,32.896-8.853
	c7.837-1.45,15.65-2.562,23.391-3.335c-0.025-0.032-0.051-0.063-0.083-0.096c-1.321-1.718-2.382-3.781-3.174-6.189
	c-0.153-0.492-0.281-0.99-0.409-1.476c-7.039,0.798-14.143,1.903-21.258,3.379c-10.616,2.146-21.258,5.104-31.746,8.917
	c-0.753-0.013-1.507-0.019-2.299-0.019c-6.03,0-12.852,0.358-20.466,1.393c-0.319,0.051-0.658,0.096-0.984,0.147
	c-2.248-0.332-5.097-0.824-8.444-1.827c-1.712-0.523-3.564-1.175-5.429-2.146c-1.84-0.964-3.756-2.21-5.289-3.967
	c-1.488-1.712-2.555-4.113-2.977-6.739c-0.415-2.619-0.205-5.5,0.837-8.023c0.543-1.246,1.271-2.408,2.223-3.328
	c0.964-0.92,2.114-1.604,3.392-2.006c1.023-0.326,2.108-0.466,3.194-0.466c0.268,0,0.524,0.019,0.779,0.032
	c1.316,0.09,2.594,0.435,3.769,0.971c2.344,1.054,4.254,2.785,5.321,4.695c0.537,0.958,0.811,1.98,0.837,2.925
	c0,0.952-0.3,1.821-0.734,2.523c-0.881,1.412-2.14,2.14-2.945,2.593c-0.409,0.243-0.754,0.371-0.971,0.479
	c-0.23,0.102-0.358,0.16-0.358,0.16s0.128-0.045,0.371-0.122c0.23-0.096,0.582-0.191,1.022-0.396
	c0.843-0.383,2.197-0.99,3.302-2.434c0.537-0.722,0.965-1.686,1.042-2.778c0.07-1.086-0.153-2.274-0.665-3.398
	c-1.022-2.235-2.964-4.28-5.519-5.679c-1.278-0.696-2.721-1.201-4.28-1.418c-0.607-0.077-1.227-0.121-1.865-0.121
	c-0.945,0-1.917,0.102-2.887,0.332c-1.597,0.396-3.143,1.188-4.446,2.293c-1.303,1.112-2.287,2.536-3.021,4.037
	c-1.437,3.034-1.808,6.42-1.412,9.562c0.416,3.143,1.635,6.126,3.59,8.394c1.929,2.204,4.222,3.603,6.35,4.618
	c2.159,1.003,4.215,1.584,6.106,2.006c0.753,0.166,1.469,0.287,2.178,0.396c-0.939,0.191-1.872,0.383-2.83,0.581
	c-1.878,0.333-3.743,0.882-5.672,1.393c-1.929,0.524-3.922,0.99-5.877,1.712c-7.965,2.466-16.333,6.139-24.732,11.204
	c-0.537,0.314-1.061,0.62-1.597,0.933l-0.792,0.479l-0.779,0.523c-1.022,0.709-2.069,1.418-3.117,2.134
	c-1.041,0.722-2.108,1.431-3.143,2.185c-1.009,0.798-2.019,1.609-3.041,2.421c-1.022,0.817-2.044,1.628-3.079,2.459
	c-1.016,0.856-2.006,1.776-3.015,2.676c-0.997,0.933-1.903,1.948-2.861,2.932c-0.946,0.99-1.763,2.102-2.664,3.155
	c-6.803,8.7-11.529,19.374-13.65,30.59c-1.054,5.608-1.438,11.376-0.984,17.061l0.172,2.134l0.339,2.114l0.332,2.114l0.517,2.102
	c0.786,2.772,1.897,5.41,3.239,7.882c1.392,2.453,2.951,4.778,4.676,6.925c1.763,2.12,3.615,4.145,5.634,5.953
	c2.019,1.801,4.108,3.482,6.343,4.912c2.21,1.431,4.516,2.708,6.918,3.653c2.401,0.983,4.893,1.648,7.365,1.974
	c1.367,0.173,2.721,0.256,4.063,0.256c1.118,0,2.21-0.058,3.29-0.166c2.389-0.218,4.701-0.805,6.86-1.571
	C127.861,229.734,129.746,228.744,131.432,227.601L131.432,227.601z M264.051,101.184c0.869-0.013,1.737-0.032,2.606-0.032
	l1.916-0.045l2,0.019c1.328,0.006,2.657,0.025,3.985,0.025c1.329,0,2.625,0.032,3.903,0.089c0.332,0.013,0.651,0.032,0.983,0.039
	c0.281-0.639,0.53-1.31,0.729-1.993c0.568-1.942,0.798-3.96,0.715-5.902c-0.741-0.039-1.476-0.07-2.223-0.103
	c-1.354-0.083-2.683-0.134-3.999-0.147c-1.322-0.038-2.645-0.057-3.979-0.089l-1.999-0.038l-2.089,0.013
	c-0.191,0-0.377,0-0.575,0.006c0.429,2.485-0.108,5.078-1.552,7.499C264.332,100.749,264.191,100.967,264.051,101.184z
	 M424.009,182.338c-0.038-0.734-0.025-1.66-0.147-2.746c-0.141-1.086-0.301-2.345-0.479-3.769c-0.268-1.405-0.639-2.97-1.009-4.701
	c-0.268-0.837-0.537-1.718-0.817-2.645c-0.281-0.926-0.563-1.884-0.984-2.836c-0.39-0.971-0.792-1.974-1.2-3.009
	c-0.473-1.016-0.997-2.05-1.508-3.136c-0.485-1.099-1.124-2.152-1.757-3.251c-0.632-1.099-1.271-2.248-2.05-3.334
	c-2.92-4.51-6.689-9.16-11.268-13.74c-4.612-4.554-10.01-9.07-16.174-13.356c-12.328-8.54-27.671-16.186-45.295-21.852
	c-13.395-4.344-28.104-7.46-43.697-9.224c0.147,2.549,0.013,5.136-0.408,7.729c15.011,1.488,29.217,4.158,42.298,7.64
	c8.655,2.363,16.863,5.04,24.439,8.17c7.582,3.111,14.551,6.605,20.811,10.393c6.267,3.769,11.798,7.851,16.506,12.104
	c1.149,1.086,2.313,2.114,3.385,3.188c1.048,1.092,2.083,2.178,3.079,3.232c0.939,1.111,1.84,2.204,2.727,3.264
	c0.882,1.073,1.629,2.204,2.408,3.251c6.107,8.623,8.7,16.735,9.646,22.261c0.204,1.398,0.383,2.632,0.53,3.705
	c0.134,1.066,0.121,1.974,0.172,2.702c0.077,1.462,0.115,2.216,0.115,2.216v-0.019c0,0-0.032,0.753-0.103,2.229
	c-0.051,0.729-0.038,1.661-0.166,2.715c-0.141,1.08-0.319,2.3-0.511,3.698c-0.262,1.38-0.651,2.92-1.035,4.612
	c-0.268,0.817-0.549,1.687-0.843,2.594c-0.294,0.893-0.581,1.839-1.009,2.759c-0.396,0.958-0.806,1.936-1.233,2.951
	c-0.492,0.983-1.028,1.974-1.571,3.021c-0.518,1.054-1.169,2.076-1.833,3.137c-0.664,1.047-1.303,2.158-2.108,3.206
	c-0.792,1.054-1.539,2.185-2.414,3.258c-0.882,1.066-1.795,2.152-2.722,3.276c-1.009,1.048-2.031,2.128-3.085,3.227
	c-1.066,1.085-2.242,2.107-3.392,3.2c-4.701,4.247-10.232,8.335-16.506,12.117c-12.52,7.588-27.913,13.925-45.236,18.684
	c-17.349,4.676-36.64,7.99-57.233,9.159c-5.148,0.332-10.418,0.505-15.662,0.537c-5.403,0.045-10.699-0.007-16.109-0.262
	c-10.846-0.473-21.909-1.565-33.063-3.476c-11.127-1.891-22.331-4.682-33.311-8.565l-2.063-0.709l-2.044-0.786
	c-1.367-0.529-2.728-1.054-4.095-1.577c-2.67-1.207-5.398-2.287-8.029-3.615c-5.327-2.504-10.526-5.366-15.496-8.579
	c-6.043-3.857-11.779-8.304-16.94-13.331c-0.645,0.575-1.329,1.112-2.019,1.591c1.035,0.958,2.076,1.903,3.13,2.83
	c4.587,4.011,9.466,7.658,14.577,10.853c10.169,6.502,21.021,11.657,32.046,15.873c11.032,4.19,22.249,7.537,33.477,9.983
	c11.211,2.491,22.421,4.185,33.459,5.155c5.519,0.466,11.076,0.767,16.391,0.9c5.468,0.096,10.782,0.045,16.083-0.159
	c21.118-0.94,41.009-4.376,58.619-10.042c8.821-2.753,17.042-6.106,24.637-9.741c7.576-3.686,14.494-7.716,20.658-11.989
	c6.164-4.286,11.561-8.789,16.16-13.356c4.587-4.567,8.355-9.211,11.28-13.708c0.779-1.099,1.405-2.242,2.044-3.334
	c0.64-1.099,1.272-2.159,1.764-3.245c0.511-1.079,1.041-2.107,1.501-3.13c0.415-1.041,0.812-2.05,1.201-3.009
	c0.415-0.958,0.695-1.916,0.983-2.836c0.287-0.92,0.556-1.808,0.811-2.645c0.37-1.73,0.747-3.283,1.022-4.694
	c0.191-1.431,0.352-2.689,0.498-3.775c0.128-1.092,0.108-2.006,0.153-2.74c0.064-1.463,0.103-2.23,0.103-2.23v-0.013
	C424.099,184.593,424.066,183.826,424.009,182.338z M154.536,232.736c-0.619-0.453-1.29-0.83-1.897-1.303l-1.891-1.38
	c-0.613-0.492-1.214-0.984-1.827-1.476c-0.601-0.492-1.182-1.028-1.763-1.553c-0.447-0.363-0.843-0.798-1.252-1.207
	c-0.013,0.76,0.058,1.674,0.288,2.657c0.236,0.99,0.581,2.114,1.169,3.258c1.118,2.338,3.091,4.88,6.208,7.09
	c2.504,1.782,5.723,3.31,9.166,4.286c3.443,1.01,7.078,1.488,10.303,1.463c3.245-0.045,6.043-0.613,7.921-1.232
	c0.933-0.274,1.661-0.664,2.14-0.856c0.479-0.217,0.748-0.345,0.748-0.345s-0.281-0.064-0.805-0.204
	c-0.511-0.148-1.239-0.262-2.108-0.581c-1.75-0.582-4.037-1.585-6.4-2.964c-4.759-2.805-9.684-7.065-13.606-9.939
	c-2.989-2.14-5.608-3.366-7.933-4.12c-2.249-0.779-4.171-1.118-5.404-1.265c0.434,0.377,0.869,0.773,1.303,1.162
	c0.537,0.525,1.188,0.972,1.763,1.483c0.549,0.517,1.213,0.958,1.808,1.456l0.428,0.339c0.205-0.013,0.447,0.006,0.754,0.025
	c0.192,0,0.409,0.02,0.626,0.051c0.217,0.02,0.447,0.077,0.69,0.109c0.243,0.07,0.479,0.108,0.741,0.185
	c0.243,0.07,0.486,0.16,0.741,0.249c0.255,0.07,0.511,0.18,0.76,0.288c0.243,0.089,0.473,0.224,0.696,0.338
	c0.229,0.115,0.428,0.263,0.613,0.377c0.192,0.115,0.383,0.236,0.549,0.358c0.16,0.114,0.307,0.197,0.434,0.307
	c0.115,0.102,0.23,0.191,0.319,0.255c0.172,0.147,0.275,0.224,0.275,0.224s-0.122-0.058-0.32-0.153
	c-0.096-0.051-0.217-0.108-0.351-0.179c-0.134-0.07-0.294-0.121-0.473-0.191c-0.172-0.083-0.345-0.148-0.549-0.198
	c-0.192-0.063-0.383-0.153-0.601-0.191c-0.204-0.058-0.409-0.128-0.626-0.141c-0.204-0.038-0.421-0.07-0.626-0.077
	c-0.211-0.013-0.415-0.013-0.613-0.013c-0.191,0-0.383,0.039-0.562,0.045c-0.077,0.025-0.153,0.025-0.23,0.038l1.035,0.741
	c0.307,0.23,0.62,0.447,0.933,0.677c0.294,0.236,0.613,0.441,0.92,0.658c0.319,0.218,0.613,0.428,0.92,0.645
	c0.307,0.217,0.587,0.453,0.901,0.651c0.606,0.409,1.207,0.805,1.769,1.232c0.575,0.409,1.175,0.754,1.712,1.15
	c0.192,0.141,0.383,0.268,0.575,0.402c0.051,0,0.115,0,0.173,0c0.376,0.013,0.811,0.019,1.271,0.089
	c0.46,0.064,0.945,0.179,1.418,0.301c0.224,0.076,0.473,0.134,0.69,0.191c0.236,0.083,0.46,0.146,0.677,0.217
	c0.204,0.077,0.409,0.16,0.594,0.236c0.192,0.083,0.364,0.153,0.53,0.23c0.319,0.141,0.581,0.262,0.773,0.345
	c0.172,0.083,0.288,0.128,0.288,0.128s-0.115-0.02-0.32-0.07c-0.185-0.045-0.473-0.103-0.792-0.186
	c-0.166-0.031-0.345-0.063-0.537-0.114c-0.185-0.02-0.383-0.058-0.587-0.09c-0.205-0.019-0.409-0.045-0.626-0.07l-0.626-0.032
	c-0.396,0-0.773-0.013-1.124,0.025c0.255,0.167,0.511,0.339,0.753,0.512c0.984,0.639,1.878,1.213,2.664,1.725
	c0.786,0.504,1.488,0.938,2.051,1.335c0.575,0.345,1.022,0.632,1.328,0.812c0.3,0.204,0.46,0.313,0.46,0.313
	s-0.191-0.058-0.568-0.141c-0.364-0.103-0.914-0.217-1.578-0.422c-0.665-0.23-1.469-0.491-2.389-0.798
	c-0.447-0.186-0.926-0.364-1.431-0.568c-0.492-0.198-1.022-0.402-1.565-0.633c-1.054-0.505-2.236-0.996-3.417-1.616
	c-0.581-0.319-1.201-0.613-1.814-0.945c-0.313-0.172-0.613-0.352-0.92-0.523c-0.313-0.173-0.626-0.345-0.952-0.523
	c-0.224-0.128-0.447-0.25-0.664-0.396c-0.02,0.096-0.02,0.191-0.02,0.313c0.02,0.141,0.02,0.307,0.077,0.48
	c0.039,0.186,0.115,0.384,0.192,0.581c0.096,0.211,0.198,0.429,0.345,0.651c0.141,0.224,0.275,0.46,0.473,0.69l0.275,0.352
	c0.096,0.121,0.204,0.229,0.313,0.345c0.217,0.217,0.434,0.435,0.677,0.626c0.23,0.198,0.447,0.402,0.69,0.574
	c0.23,0.18,0.46,0.346,0.665,0.505c0.409,0.307,0.805,0.498,1.066,0.671c0.262,0.153,0.415,0.249,0.415,0.249
	s-0.166-0.063-0.447-0.166c-0.281-0.115-0.715-0.243-1.194-0.492c-0.249-0.121-0.511-0.255-0.786-0.39
	c-0.288-0.134-0.575-0.313-0.869-0.485c-0.306-0.166-0.613-0.364-0.9-0.581c-0.153-0.115-0.307-0.224-0.454-0.339l-0.421-0.376
	c-0.307-0.236-0.562-0.518-0.831-0.779c-0.268-0.263-0.485-0.557-0.69-0.856c-0.191-0.287-0.396-0.581-0.523-0.855
	c-0.166-0.281-0.262-0.543-0.364-0.793c-0.07-0.249-0.16-0.479-0.192-0.683c-0.044-0.205-0.057-0.39-0.057-0.537
	c-0.006-0.115-0.006-0.204,0-0.287L154.536,232.736z M300.46,84.052c-1.673,2.159-2.158,4.197-2.273,5.366
	c0.383-0.402,0.767-0.837,1.201-1.22c0.549-0.523,1.149-1.016,1.763-1.488c0.639-0.447,1.271-0.881,1.954-1.296l0.473-0.269
	c0.077-0.191,0.186-0.434,0.332-0.703c0.103-0.166,0.205-0.345,0.346-0.53c0.121-0.179,0.281-0.383,0.434-0.581
	c0.18-0.198,0.339-0.402,0.557-0.582c0.197-0.185,0.402-0.376,0.651-0.556c0.211-0.185,0.466-0.338,0.715-0.485
	c0.23-0.16,0.505-0.288,0.748-0.415c0.242-0.134,0.511-0.211,0.74-0.307c0.23-0.102,0.467-0.16,0.678-0.23
	c0.204-0.051,0.396-0.108,0.574-0.134c0.179-0.032,0.326-0.064,0.447-0.077c0.243-0.051,0.39-0.07,0.39-0.07
	s-0.134,0.045-0.364,0.134c-0.108,0.051-0.255,0.102-0.408,0.166c-0.153,0.051-0.319,0.147-0.498,0.236
	c-0.18,0.089-0.371,0.179-0.543,0.319c-0.186,0.128-0.39,0.23-0.556,0.383c-0.18,0.141-0.364,0.281-0.518,0.447
	c-0.16,0.166-0.314,0.326-0.441,0.492c-0.141,0.16-0.268,0.332-0.363,0.511c-0.115,0.166-0.186,0.338-0.275,0.498
	c-0.025,0.077-0.058,0.147-0.083,0.217c0.39-0.172,0.799-0.332,1.194-0.473c0.364-0.134,0.728-0.269,1.099-0.377
	c0.377-0.108,0.741-0.236,1.112-0.319c0.37-0.102,0.74-0.185,1.105-0.281c0.37-0.063,0.734-0.134,1.105-0.204
	c0.727-0.115,1.443-0.243,2.165-0.281c0.709-0.051,1.412-0.089,2.089-0.083c0.23,0,0.46,0.019,0.69,0.019
	c0.058-0.038,0.115-0.057,0.166-0.096c0.319-0.179,0.716-0.383,1.176-0.537c0.447-0.16,0.965-0.287,1.481-0.364
	c0.256-0.02,0.512-0.058,0.773-0.09c0.256,0,0.518-0.019,0.76-0.019c0.243,0.019,0.485,0.019,0.703,0.032
	c0.224,0.019,0.435,0.057,0.626,0.077c0.396,0.057,0.702,0.115,0.92,0.172c0.217,0.044,0.345,0.083,0.345,0.083
	s-0.128-0.006-0.345-0.025c-0.23-0.013-0.543-0.02-0.907,0c-0.185,0.019-0.384,0.025-0.588,0.032
	c-0.198,0.038-0.415,0.064-0.632,0.096c-0.205,0.051-0.422,0.089-0.64,0.134c-0.217,0.051-0.415,0.134-0.619,0.198
	c-0.383,0.153-0.741,0.307-1.035,0.486c0.301,0.051,0.601,0.102,0.895,0.153c1.137,0.217,2.165,0.498,3.027,0.817
	c0.869,0.332,1.598,0.651,2.153,0.984c0.556,0.313,0.964,0.613,1.245,0.792c0.275,0.191,0.409,0.319,0.409,0.319
	s-0.179-0.064-0.511-0.16c-0.346-0.07-0.831-0.23-1.457-0.351c-0.607-0.134-1.367-0.255-2.248-0.358
	c-0.435-0.038-0.894-0.103-1.38-0.109c-0.492-0.019-0.996-0.051-1.521-0.038c-1.073,0-2.21,0.083-3.392,0.249
	c-0.594,0.07-1.207,0.172-1.82,0.294c-0.307,0.058-0.613,0.115-0.927,0.191c-0.3,0.083-0.619,0.153-0.926,0.236l-0.664,0.179
	c0.051,0.07,0.121,0.14,0.191,0.23c0.102,0.089,0.204,0.204,0.345,0.294c0.141,0.109,0.319,0.198,0.479,0.294
	c0.191,0.096,0.377,0.192,0.594,0.269c0.224,0.07,0.44,0.166,0.689,0.217l0.358,0.096c0.115,0.032,0.249,0.051,0.383,0.077
	c0.243,0.044,0.485,0.089,0.729,0.115c0.256,0.032,0.485,0.077,0.716,0.096c0.242,0.019,0.459,0.032,0.651,0.051
	c0.408,0.051,0.747,0.032,0.989,0.058c0.236,0.025,0.377,0.025,0.377,0.025s-0.134,0.019-0.37,0.051
	c-0.236,0.038-0.575,0.14-0.983,0.179c-0.205,0.032-0.435,0.051-0.664,0.102c-0.243,0.045-0.499,0.051-0.767,0.083
	c-0.269,0.032-0.55,0.051-0.831,0.064c-0.153,0.006-0.3,0.006-0.44,0.006h-0.453c-0.301,0.013-0.601-0.038-0.895-0.051
	c-0.307-0.032-0.607-0.083-0.895-0.14c-0.287-0.077-0.562-0.128-0.817-0.211c-0.268-0.083-0.498-0.191-0.716-0.288
	c-0.217-0.108-0.408-0.185-0.574-0.294c-0.166-0.096-0.301-0.205-0.422-0.288c-0.077-0.07-0.141-0.122-0.198-0.179
	c-0.186,0.07-0.377,0.14-0.568,0.217c-0.613,0.25-1.22,0.53-1.827,0.831c-0.601,0.288-1.2,0.601-1.763,0.945
	c-1.162,0.671-2.255,1.418-3.245,2.236c-0.37,0.3-0.702,0.62-1.047,0.92c1.315,0.249,2.97,0.486,4.867,0.518
	c1.916,0.032,4.075-0.16,6.585-0.754c2.038-0.479,4.331-1.194,6.732-1.782c2.396-0.563,4.881-0.958,7.187-0.901
	c1.149,0.032,2.235,0.185,3.245,0.409c0.996,0.243,1.891,0.594,2.632,0.952c0.728,0.364,1.335,0.722,1.712,1.002
	c0.395,0.275,0.619,0.435,0.619,0.435s-0.058-0.262-0.166-0.741c-0.108-0.492-0.326-1.188-0.709-2.044
	c-0.377-0.856-0.952-1.865-1.775-2.9c-0.844-1.022-1.91-2.076-3.194-3.028c-2.594-1.884-5.991-3.29-9.428-3.909
	c-3.431-0.626-6.898-0.562-9.761,0.122C304.995,79.677,302.121,81.913,300.46,84.052z M287.085,65.713
	c0.6,1.738,1.111,3.577,1.494,5.225c0.396,1.654,0.613,3.066,0.933,4.133c0.518,1.578,1.444,2.626,2.53,3.82
	c1.079,1.15,2.146,2.28,2.938,3.003c-0.038-0.371-0.083-0.735-0.127-1.099c-0.014-0.236-0.026-0.466-0.058-0.696l-0.115-0.69
	c-0.058-0.454-0.121-0.901-0.243-1.348l-0.058-0.319c-0.147-0.077-0.319-0.179-0.511-0.293c-0.128-0.077-0.242-0.16-0.37-0.256
	c-0.135-0.083-0.281-0.179-0.422-0.281c-0.128-0.103-0.269-0.205-0.39-0.313c-0.128-0.109-0.262-0.211-0.352-0.339
	c-0.127-0.102-0.191-0.23-0.293-0.345c-0.115-0.108-0.18-0.236-0.263-0.345c-0.083-0.109-0.121-0.23-0.172-0.326
	c-0.058-0.102-0.09-0.217-0.115-0.313c-0.025-0.102-0.064-0.179-0.077-0.262c-0.025-0.077-0.038-0.16-0.051-0.211
	c-0.019-0.121-0.032-0.179-0.032-0.179s0.039,0.058,0.109,0.153c0.031,0.045,0.076,0.108,0.121,0.172
	c0.045,0.07,0.121,0.134,0.185,0.211c0.076,0.077,0.127,0.166,0.229,0.243c0.09,0.083,0.166,0.172,0.275,0.243
	c0.122,0.077,0.218,0.166,0.351,0.243c0.128,0.077,0.256,0.147,0.397,0.217c0.141,0.064,0.268,0.134,0.408,0.191
	c0.135,0.051,0.281,0.109,0.409,0.16c0.064,0.02,0.128,0.045,0.186,0.058c-0.058-0.23-0.097-0.473-0.186-0.696l-0.191-0.62
	c-0.065-0.21-0.103-0.421-0.173-0.632l-0.224-0.594c-0.051-0.217-0.121-0.409-0.179-0.613c-0.146-0.402-0.307-0.779-0.422-1.169
	c-0.114-0.402-0.307-0.76-0.435-1.15c-0.038-0.127-0.083-0.262-0.127-0.39l-0.115-0.032c-0.243-0.103-0.537-0.198-0.792-0.345
	c-0.262-0.134-0.525-0.307-0.754-0.492c-0.103-0.089-0.229-0.191-0.339-0.281c-0.096-0.102-0.197-0.198-0.3-0.3
	c-0.077-0.09-0.166-0.198-0.243-0.288c-0.063-0.102-0.134-0.198-0.204-0.281c-0.128-0.166-0.217-0.319-0.281-0.415
	c-0.064-0.115-0.108-0.166-0.108-0.166s0.058,0.045,0.147,0.121c0.114,0.077,0.229,0.192,0.421,0.307
	c0.077,0.058,0.166,0.122,0.269,0.198c0.103,0.058,0.204,0.121,0.319,0.185c0.115,0.064,0.243,0.122,0.357,0.179l0.384,0.16
	c0.268,0.083,0.518,0.172,0.767,0.217c-0.064-0.172-0.115-0.357-0.192-0.523c-0.274-0.658-0.478-1.31-0.709-1.859
	c-0.197-0.588-0.377-1.08-0.53-1.495c-0.152-0.428-0.255-0.76-0.319-0.99c-0.076-0.23-0.121-0.358-0.121-0.358
	s0.096,0.096,0.262,0.256c0.179,0.172,0.422,0.421,0.735,0.728c0.307,0.319,0.651,0.734,1.06,1.182
	c0.205,0.224,0.402,0.485,0.62,0.741c0.204,0.274,0.428,0.549,0.664,0.843c0.422,0.607,0.92,1.239,1.354,1.968
	c0.204,0.364,0.478,0.715,0.684,1.118c0.108,0.191,0.217,0.402,0.325,0.607c0.108,0.179,0.218,0.39,0.339,0.594l0.198,0.454
	c0.063-0.058,0.134-0.115,0.204-0.179c0.083-0.102,0.191-0.205,0.274-0.338c0.096-0.134,0.173-0.281,0.243-0.435
	c0.07-0.16,0.121-0.338,0.172-0.53c0.032-0.198,0.09-0.39,0.09-0.601l0.013-0.326c0.013-0.108,0-0.217,0-0.326
	c-0.007-0.224-0.038-0.428-0.096-0.632c-0.045-0.205-0.07-0.415-0.134-0.601c-0.07-0.191-0.128-0.37-0.18-0.543
	c-0.102-0.338-0.268-0.581-0.357-0.779c-0.083-0.179-0.141-0.293-0.141-0.293s0.09,0.096,0.23,0.249
	c0.114,0.16,0.345,0.364,0.549,0.677c0.103,0.16,0.204,0.326,0.319,0.504c0.115,0.179,0.211,0.383,0.332,0.601
	c0.128,0.198,0.205,0.434,0.275,0.683c0.038,0.115,0.096,0.243,0.121,0.371l0.076,0.383c0.077,0.269,0.09,0.537,0.115,0.792
	c0.007,0.275-0.025,0.543-0.058,0.798c-0.045,0.25-0.096,0.505-0.172,0.722c-0.07,0.23-0.173,0.434-0.263,0.613
	c-0.108,0.185-0.217,0.357-0.338,0.479c-0.102,0.147-0.224,0.249-0.307,0.345c-0.09,0.07-0.141,0.115-0.204,0.16l0.153,0.422
	c0.179,0.473,0.325,0.952,0.453,1.443c0.134,0.492,0.287,0.997,0.352,1.507c0.217,1.022,0.3,2.063,0.383,3.13
	c0,0.39,0,0.773,0,1.156c1.086-0.575,2.345-1.635,3.226-3.456c0.869-1.789,1.221-4.382,0.326-7.173
	c-0.703-2.255-2.235-4.459-4.1-6.138c-1.84-1.712-3.974-2.945-5.915-3.788c-1.942-0.856-3.743-1.291-5.021-1.571
	c-1.291-0.255-2.076-0.338-2.076-0.338s0.325,0.722,0.837,1.891C285.82,62.392,286.504,63.97,287.085,65.713z M162.75,255.859
	c-2.006-3.89-4.855-6.132-7.263-7.237c-2.44-1.118-4.51-1.111-5.66-1.016c0.46,0.294,0.933,0.601,1.418,0.92
	c0.626,0.415,1.214,0.882,1.795,1.386l0.882,0.761l0.811,0.811l0.383,0.409c0.204,0.025,0.46,0.077,0.76,0.146
	c0.185,0.052,0.39,0.122,0.594,0.198c0.205,0.07,0.428,0.192,0.652,0.288c0.23,0.134,0.459,0.255,0.689,0.402
	c0.23,0.146,0.473,0.307,0.696,0.491c0.243,0.173,0.441,0.377,0.646,0.575c0.204,0.191,0.383,0.415,0.562,0.619
	c0.191,0.211,0.332,0.435,0.485,0.646c0.147,0.191,0.268,0.396,0.383,0.594c0.089,0.192,0.191,0.352,0.255,0.512
	c0.077,0.166,0.134,0.3,0.192,0.415c0.089,0.224,0.146,0.352,0.146,0.352s-0.083-0.115-0.217-0.307
	c-0.07-0.102-0.147-0.218-0.249-0.358c-0.09-0.134-0.217-0.262-0.345-0.421c-0.128-0.153-0.274-0.307-0.434-0.454
	c-0.167-0.128-0.333-0.3-0.518-0.435c-0.172-0.127-0.352-0.274-0.556-0.376c-0.192-0.122-0.383-0.236-0.568-0.319
	c-0.192-0.103-0.377-0.167-0.569-0.23c-0.191-0.07-0.383-0.096-0.562-0.141c-0.077-0.013-0.153-0.013-0.23-0.025
	c0.275,0.332,0.518,0.677,0.735,1.041c0.217,0.319,0.415,0.646,0.632,0.965c0.191,0.332,0.402,0.651,0.575,0.99
	c0.179,0.332,0.345,0.67,0.511,1.003c0.166,0.332,0.332,0.664,0.492,0.996c0.287,0.677,0.556,1.335,0.798,2.006
	c0.255,0.651,0.435,1.322,0.601,1.961c0.064,0.224,0.121,0.44,0.179,0.658c0.051,0.038,0.089,0.076,0.141,0.114
	c0.275,0.256,0.549,0.582,0.817,0.971c0.281,0.371,0.543,0.812,0.779,1.259c0.115,0.224,0.211,0.453,0.307,0.69
	c0.077,0.23,0.166,0.467,0.23,0.684c0.064,0.23,0.134,0.447,0.192,0.646c0.051,0.211,0.089,0.402,0.14,0.588
	c0.09,0.352,0.102,0.671,0.128,0.868c0.025,0.218,0.039,0.332,0.039,0.332s-0.039-0.114-0.09-0.307
	c-0.077-0.197-0.14-0.491-0.287-0.81c-0.083-0.166-0.16-0.332-0.236-0.518c-0.089-0.173-0.186-0.352-0.288-0.536
	c-0.096-0.18-0.211-0.364-0.313-0.55c-0.128-0.173-0.249-0.339-0.371-0.511c-0.243-0.313-0.511-0.595-0.773-0.818
	c0.045,0.294,0.096,0.588,0.134,0.876c0.083,1.137,0.191,2.158,0.166,3.072c-0.038,0.9-0.058,1.673-0.141,2.3
	c-0.089,0.632-0.191,1.117-0.243,1.443c-0.064,0.325-0.102,0.504-0.102,0.504s-0.032-0.185-0.089-0.529
	c-0.058-0.339-0.134-0.844-0.23-1.463c-0.128-0.62-0.294-1.374-0.485-2.224c-0.077-0.428-0.23-0.881-0.352-1.348
	c-0.147-0.453-0.249-0.958-0.421-1.463c-0.364-0.996-0.69-2.088-1.195-3.174c-0.243-0.55-0.459-1.118-0.753-1.661
	c-0.153-0.287-0.294-0.568-0.435-0.855c-0.147-0.275-0.3-0.557-0.447-0.844c-0.115-0.191-0.23-0.395-0.352-0.588
	c-0.045,0.065-0.096,0.147-0.172,0.236c-0.051,0.122-0.128,0.263-0.186,0.422c-0.07,0.147-0.115,0.339-0.172,0.523
	c-0.044,0.205-0.089,0.422-0.115,0.652c-0.013,0.236-0.051,0.466-0.039,0.722v0.377c0,0.121,0.026,0.249,0.039,0.377
	c0.025,0.249,0.025,0.504,0.07,0.766c0.025,0.243,0.044,0.486,0.096,0.716c0.051,0.23,0.089,0.46,0.134,0.651
	c0.096,0.409,0.172,0.741,0.223,0.99c0.058,0.243,0.09,0.384,0.09,0.384s-0.064-0.135-0.167-0.358
	c-0.102-0.217-0.262-0.536-0.447-0.92c-0.089-0.191-0.192-0.408-0.281-0.632c-0.108-0.224-0.185-0.467-0.281-0.722
	c-0.103-0.263-0.179-0.537-0.275-0.811c-0.058-0.134-0.108-0.274-0.147-0.422l-0.102-0.44c-0.089-0.287-0.115-0.594-0.16-0.9
	c-0.058-0.301-0.089-0.595-0.109-0.882c-0.006-0.3-0.013-0.588,0.013-0.862c0.013-0.274,0.07-0.523,0.096-0.767
	c0.07-0.236,0.096-0.44,0.16-0.626c0.051-0.179,0.121-0.339,0.166-0.466c0.051-0.096,0.089-0.173,0.128-0.243l-0.345-0.485
	l-0.581-0.817l-0.652-0.767c-0.434-0.518-0.849-1.028-1.329-1.495c-0.473-0.473-0.926-0.958-1.418-1.393
	c-0.492-0.421-0.996-0.843-1.488-1.265c-0.377-0.3-0.767-0.549-1.149-0.824c0.051,1.322,0.198,3.028,0.613,4.894
	c0.447,1.871,1.086,3.947,2.313,6.266c0.984,1.872,2.299,3.986,3.571,6.261c1.284,2.28,2.548,4.732,3.57,7.07
	c1.042,2.325,1.744,4.535,2.242,6.196c0.428,1.674,0.696,2.695,0.696,2.695s0.122-0.229,0.358-0.664
	c0.217-0.435,0.562-1.061,0.933-1.885c0.689-1.647,1.597-4.043,2.114-6.931c0.53-2.867,0.734-6.208,0.39-9.498
	C165.005,261.659,164.098,258.427,162.75,255.859z M138.893,240.587c-0.454-1.221-0.971-2.268-1.654-3.086
	c-1.31-1.642-2.773-2.587-3.724-3.085c0.166,0.402,0.313,0.811,0.466,1.239c0.186,0.537,0.377,1.08,0.543,1.642
	c0.153,0.563,0.345,1.118,0.447,1.706l0.077,0.415c0.153,0.096,0.326,0.236,0.53,0.396c0.121,0.108,0.262,0.224,0.39,0.364
	c0.14,0.121,0.262,0.287,0.396,0.447c0.127,0.159,0.268,0.326,0.383,0.511c0.121,0.191,0.243,0.384,0.338,0.581
	c0.108,0.198,0.198,0.416,0.275,0.62c0.077,0.198,0.115,0.422,0.166,0.626c0.051,0.204,0.057,0.415,0.089,0.606
	c0.025,0.186,0.025,0.364,0.025,0.537c0,0.166,0.013,0.313,0,0.447c-0.013,0.121-0.025,0.249-0.025,0.338
	c-0.026,0.186-0.032,0.294-0.032,0.294s-0.019-0.096-0.057-0.294c-0.006-0.083-0.032-0.204-0.051-0.325
	c-0.019-0.128-0.064-0.263-0.108-0.409c-0.039-0.153-0.083-0.3-0.16-0.46c-0.064-0.159-0.121-0.332-0.217-0.479
	c-0.083-0.167-0.166-0.326-0.275-0.473c-0.108-0.147-0.211-0.294-0.338-0.429c-0.122-0.128-0.255-0.249-0.396-0.364
	c-0.115-0.108-0.269-0.197-0.396-0.3c-0.064-0.038-0.115-0.07-0.179-0.108c0.038,0.325,0.102,0.645,0.115,0.964
	c0.013,0.294,0.025,0.601,0.045,0.889c0,0.3,0,0.587,0,0.881c0,0.288,0.006,0.582,0.006,0.869c-0.006,0.287-0.026,0.575-0.039,0.862
	c-0.025,0.563-0.102,1.124-0.198,1.667c-0.096,0.53-0.173,1.061-0.288,1.571c-0.039,0.179-0.077,0.345-0.115,0.511l0.077,0.141
	c0.153,0.288,0.25,0.613,0.339,0.978c0.089,0.364,0.134,0.767,0.16,1.169c0,0.191,0,0.402,0,0.601
	c-0.013,0.191-0.026,0.383-0.038,0.575c-0.025,0.185-0.051,0.357-0.063,0.529c-0.039,0.16-0.058,0.326-0.103,0.46
	c-0.077,0.281-0.185,0.499-0.243,0.658c-0.058,0.16-0.089,0.249-0.089,0.249s0.013-0.102,0.032-0.262
	c0.02-0.166,0.058-0.395,0.07-0.671c0-0.141,0-0.294-0.013-0.447c-0.019-0.159-0.038-0.325-0.051-0.491
	c-0.025-0.173-0.063-0.339-0.096-0.518c-0.038-0.16-0.096-0.326-0.134-0.498c-0.102-0.313-0.217-0.607-0.371-0.856
	c-0.077,0.218-0.16,0.441-0.243,0.645c-0.345,0.837-0.613,1.591-1.029,2.197c-0.39,0.613-0.722,1.131-1.022,1.539
	c-0.3,0.402-0.556,0.703-0.709,0.907c-0.166,0.217-0.275,0.313-0.275,0.313s0.045-0.135,0.108-0.409
	c0.064-0.256,0.166-0.645,0.281-1.118c0.127-0.473,0.274-1.054,0.434-1.712c0.109-0.319,0.153-0.684,0.205-1.066
	c0.051-0.364,0.108-0.76,0.166-1.162c0.089-0.824,0.281-1.693,0.255-2.626c0.013-0.46,0.026-0.945,0.026-1.431
	c0.006-0.242,0.013-0.479,0.013-0.741c0-0.242,0.013-0.485-0.013-0.74l-0.039-0.537c-0.083,0.032-0.166,0.064-0.255,0.108
	c-0.115,0.058-0.249,0.109-0.371,0.211c-0.128,0.077-0.249,0.191-0.383,0.301c-0.128,0.121-0.268,0.249-0.402,0.402
	c-0.121,0.146-0.255,0.3-0.364,0.473l-0.179,0.262c-0.051,0.083-0.089,0.186-0.141,0.269c-0.102,0.179-0.198,0.357-0.268,0.549
	c-0.064,0.179-0.141,0.357-0.198,0.53c-0.057,0.186-0.096,0.345-0.153,0.505c-0.083,0.307-0.14,0.568-0.198,0.747
	c-0.058,0.179-0.102,0.287-0.102,0.287s0.013-0.108,0.013-0.293c0.006-0.192-0.013-0.46-0.026-0.793c0-0.166,0-0.351,0-0.542
	c0-0.192,0.032-0.396,0.058-0.595c0.006-0.217,0.058-0.435,0.096-0.664c0.026-0.103,0.051-0.217,0.077-0.339l0.115-0.338
	c0.051-0.224,0.185-0.441,0.255-0.684c0.089-0.224,0.205-0.441,0.326-0.651c0.122-0.205,0.243-0.402,0.39-0.582
	c0.141-0.185,0.3-0.345,0.447-0.491c0.16-0.135,0.3-0.268,0.447-0.371c0.141-0.096,0.274-0.185,0.383-0.249
	c0.089-0.051,0.166-0.083,0.23-0.121l-0.038-0.467c-0.038-0.517-0.179-1.041-0.262-1.559c-0.096-0.523-0.211-1.041-0.326-1.552
	c-0.179-1.035-0.499-2.057-0.792-3.06c-0.115-0.37-0.223-0.734-0.332-1.099c-0.856,0.882-1.776,2.107-2.491,3.622
	c-0.767,1.507-1.213,3.321-1.284,5.403c-0.006,0.434,0.032,0.882,0.044,1.322c0.013,0.441,0.045,0.895,0.083,1.373
	c0.045,0.467,0.109,0.946,0.192,1.438c0.07,0.498,0.083,0.971,0.153,1.488c0.108,0.99,0.326,2.051,0.364,3.066
	c0.051,0.518,0.089,1.048,0.146,1.552c0.058,0.524,0.109,1.035,0.102,1.533c0.025,1.035,0.057,1.999,0.07,2.888
	c0.019,0.9-0.064,1.698-0.089,2.395c-0.051,1.405-0.103,2.274-0.103,2.274s0.709-0.467,1.865-1.335
	c0.549-0.453,1.277-0.971,1.993-1.648c0.677-0.683,1.431-1.469,2.229-2.363c0.415-0.435,0.767-0.913,1.118-1.431
	c0.352-0.511,0.703-1.035,1.061-1.584c0.754-1.086,1.291-2.28,1.814-3.494c0.255-0.619,0.543-1.239,0.729-1.853
	c0.179-0.619,0.345-1.232,0.485-1.84c0.141-0.619,0.262-1.22,0.357-1.82c0.083-0.581,0.096-1.149,0.109-1.692
	c0-0.83-0.045-1.616-0.141-2.351C139.321,241.857,139.104,241.206,138.893,240.587z M232.752,88.447
	c-0.173-0.447-0.332-0.9-0.498-1.367c-0.224-0.594-0.409-1.22-0.556-1.853c-0.135-0.639-0.313-1.277-0.377-1.948l-0.058-0.473
	c-0.147-0.127-0.326-0.294-0.518-0.498c-0.115-0.134-0.242-0.281-0.364-0.447c-0.134-0.153-0.229-0.351-0.35-0.549
	c-0.109-0.205-0.218-0.402-0.314-0.639c-0.096-0.23-0.186-0.46-0.262-0.715c-0.077-0.236-0.153-0.492-0.186-0.748
	c-0.045-0.243-0.058-0.504-0.07-0.753c-0.025-0.243,0-0.486,0-0.703c0-0.23,0.032-0.435,0.052-0.627
	c0.018-0.204,0.063-0.376,0.102-0.53c0.038-0.147,0.077-0.281,0.108-0.383c0.058-0.217,0.096-0.339,0.096-0.339
	s-0.013,0.128-0.025,0.345c0,0.108-0.013,0.236-0.013,0.383c-0.013,0.153,0,0.319,0.013,0.498c0.025,0.172,0.039,0.364,0.083,0.556
	c0.045,0.186,0.077,0.402,0.148,0.588c0.063,0.198,0.115,0.402,0.217,0.575c0.07,0.192,0.16,0.371,0.262,0.53
	c0.083,0.172,0.224,0.326,0.332,0.479c0.115,0.147,0.243,0.262,0.364,0.383c0.052,0.051,0.109,0.102,0.166,0.147
	c0-0.364-0.025-0.741,0.026-1.111c0.025-0.339,0.051-0.671,0.076-1.009c0.045-0.326,0.077-0.664,0.128-0.99
	c0.063-0.326,0.134-0.651,0.191-0.977c0.077-0.32,0.141-0.633,0.23-0.952c0.179-0.613,0.376-1.226,0.6-1.814
	c0.211-0.581,0.499-1.118,0.761-1.654c0.083-0.172,0.185-0.358,0.274-0.543c-0.013-0.058-0.013-0.102-0.025-0.16
	c-0.02-0.326-0.032-0.715,0.013-1.137c0.038-0.428,0.115-0.888,0.242-1.315c0.084-0.217,0.167-0.422,0.243-0.639
	c0.102-0.204,0.191-0.402,0.274-0.594c0.102-0.186,0.198-0.371,0.288-0.543c0.102-0.166,0.217-0.3,0.307-0.441
	c0.191-0.274,0.383-0.473,0.498-0.626c0.121-0.141,0.191-0.224,0.191-0.224s-0.051,0.096-0.141,0.256
	c-0.083,0.172-0.217,0.402-0.345,0.696c-0.051,0.147-0.115,0.294-0.191,0.454c-0.052,0.186-0.09,0.358-0.141,0.549
	c-0.052,0.173-0.09,0.371-0.128,0.556c-0.032,0.192-0.051,0.377-0.077,0.569c-0.013,0.364-0.031,0.696,0.026,1.016
	c0.146-0.217,0.319-0.415,0.479-0.62c0.658-0.773,1.259-1.438,1.885-1.942c0.307-0.243,0.588-0.479,0.843-0.696
	c0.275-0.198,0.537-0.364,0.779-0.511c0.467-0.3,0.844-0.498,1.086-0.639c0.268-0.127,0.409-0.185,0.409-0.185
	s-0.115,0.108-0.294,0.338c-0.186,0.23-0.44,0.575-0.779,1.003c-0.357,0.402-0.709,0.952-1.111,1.584
	c-0.218,0.294-0.435,0.626-0.626,1.003c-0.191,0.358-0.402,0.741-0.62,1.144c-0.211,0.39-0.37,0.83-0.562,1.265
	c-0.198,0.447-0.39,0.907-0.518,1.399c-0.153,0.479-0.332,0.971-0.447,1.482c-0.051,0.262-0.115,0.524-0.173,0.792
	c-0.057,0.262-0.108,0.524-0.159,0.786l-0.07,0.582c0.083-0.019,0.173-0.032,0.274-0.058c0.115-0.058,0.256-0.077,0.402-0.16
	c0.135-0.058,0.288-0.153,0.447-0.23c0.16-0.109,0.326-0.217,0.479-0.338c0.159-0.134,0.319-0.256,0.46-0.422l0.229-0.217
	c0.064-0.077,0.128-0.16,0.191-0.243c0.128-0.166,0.294-0.319,0.402-0.492c0.122-0.172,0.256-0.319,0.352-0.479
	c0.103-0.166,0.204-0.313,0.281-0.46c0.179-0.281,0.332-0.511,0.435-0.684c0.115-0.172,0.166-0.262,0.166-0.262
	s-0.025,0.108-0.077,0.3c-0.058,0.191-0.141,0.453-0.229,0.786c-0.045,0.16-0.103,0.338-0.153,0.523
	c-0.051,0.198-0.141,0.383-0.218,0.582c-0.063,0.211-0.179,0.402-0.255,0.632c-0.058,0.102-0.09,0.217-0.153,0.319l-0.166,0.319
	c-0.108,0.23-0.268,0.422-0.415,0.632c-0.122,0.211-0.288,0.409-0.435,0.601c-0.173,0.185-0.339,0.377-0.523,0.524
	c-0.167,0.172-0.371,0.3-0.53,0.434c-0.18,0.121-0.333,0.243-0.492,0.326c-0.146,0.089-0.3,0.153-0.415,0.211
	c-0.102,0.039-0.166,0.058-0.249,0.089l-0.013,0.505c-0.045,0.562,0.025,1.13,0.057,1.705c0.014,0.563,0.084,1.124,0.173,1.693
	c0.134,1.118,0.422,2.223,0.684,3.296c0.115,0.383,0.243,0.767,0.377,1.169c0.785-0.952,1.744-2.216,2.536-3.692
	c0.792-1.482,1.476-3.13,1.852-5.091c0.314-1.59,0.447-3.418,0.831-5.391c0.37-1.961,0.971-4.095,1.788-6.062
	c0.384-1.003,0.875-1.903,1.291-2.772c0.459-0.837,0.906-1.603,1.277-2.255c0.823-1.265,1.328-2.05,1.328-2.05
	s-0.913,0.115-2.466,0.421c-0.753,0.179-1.673,0.435-2.689,0.767c-0.997,0.383-2.153,0.811-3.283,1.45
	c-2.319,1.195-4.798,3.073-6.739,5.494c-1.974,2.401-3.321,5.308-3.826,7.914c-0.772,3.986,0.236,7.033,1.45,9.02
	C230.229,86.876,231.813,87.911,232.752,88.447z M201.069,94.592c2.389-0.351,4.976-0.639,7.346-0.747
	c2.376-0.141,4.49-0.096,6.119-0.153c1.246-0.032,2.242-0.147,3.182-0.32c0.939-0.172,1.814-0.39,2.683-0.581
	c1.757-0.421,3.475-0.709,4.586-0.939c-0.435-0.191-0.83-0.435-1.27-0.607c-0.556-0.262-1.144-0.454-1.706-0.651l-0.855-0.262
	l-0.882-0.198c-0.141-0.038-0.274-0.051-0.415-0.083c-0.16,0.102-0.352,0.224-0.568,0.351c-0.128,0.084-0.281,0.167-0.447,0.262
	c-0.153,0.089-0.332,0.166-0.498,0.249c-0.179,0.089-0.352,0.166-0.537,0.255c-0.191,0.077-0.383,0.16-0.574,0.211
	c-0.18,0.07-0.377,0.122-0.563,0.179c-0.186,0.058-0.37,0.07-0.55,0.109c-0.179,0.051-0.351,0.051-0.511,0.07
	c-0.166,0.032-0.319,0.013-0.466,0.025c-0.135,0-0.275,0.019-0.377,0.006c-0.121-0.006-0.218-0.019-0.301-0.032
	c-0.159-0.007-0.255-0.007-0.255-0.007s0.083-0.025,0.242-0.064c0.083-0.019,0.173-0.045,0.288-0.064
	c0.102-0.019,0.23-0.07,0.363-0.115c0.128-0.051,0.275-0.089,0.403-0.153c0.14-0.07,0.3-0.115,0.434-0.204
	c0.153-0.089,0.307-0.16,0.447-0.249c0.148-0.096,0.288-0.179,0.422-0.3c0.153-0.096,0.268-0.217,0.409-0.326
	c0.121-0.103,0.236-0.23,0.351-0.332c0.058-0.057,0.096-0.102,0.147-0.153c-0.319-0.038-0.651-0.051-0.972-0.063
	c-0.3-0.026-0.6-0.026-0.888-0.007c-0.3-0.019-0.594-0.025-0.888-0.019c-0.3,0.019-0.588,0.013-0.882,0.045
	c-0.287,0.006-0.587,0.025-0.868,0.038c-0.588,0.045-1.163,0.102-1.725,0.147c-0.568,0.045-1.124,0.141-1.667,0.192
	c-0.185,0.013-0.377,0.044-0.556,0.07l-0.109,0.108c-0.229,0.236-0.491,0.498-0.798,0.728c-0.301,0.236-0.639,0.479-0.983,0.696
	c-0.186,0.096-0.358,0.192-0.524,0.294c-0.191,0.083-0.357,0.172-0.523,0.255c-0.166,0.077-0.332,0.147-0.492,0.217
	c-0.159,0.064-0.313,0.115-0.447,0.172c-0.275,0.102-0.518,0.166-0.677,0.217c-0.16,0.058-0.262,0.089-0.262,0.089
	s0.089-0.058,0.23-0.147c0.153-0.089,0.358-0.204,0.601-0.371c0.108-0.077,0.243-0.166,0.37-0.249
	c0.128-0.102,0.269-0.204,0.403-0.319c0.134-0.102,0.274-0.217,0.402-0.332l0.39-0.364c0.236-0.255,0.453-0.504,0.632-0.753
	c-0.255,0.032-0.505,0.077-0.747,0.115c-0.978,0.147-1.859,0.281-2.645,0.396c-0.799,0.102-1.476,0.243-2.063,0.3
	c-0.562,0.07-1.021,0.122-1.328,0.172c-0.307,0.032-0.473,0.051-0.473,0.051s0.153-0.083,0.435-0.249
	c0.287-0.147,0.689-0.377,1.22-0.626c0.53-0.262,1.175-0.575,1.929-0.901c0.364-0.16,0.773-0.326,1.182-0.511
	c0.428-0.166,0.869-0.332,1.342-0.511c0.92-0.351,1.936-0.684,3.027-1.003c0.55-0.134,1.105-0.3,1.686-0.434
	c0.281-0.058,0.588-0.122,0.882-0.186c0.3-0.064,0.6-0.115,0.906-0.179c0.205-0.039,0.434-0.07,0.652-0.096
	c-0.045-0.07-0.09-0.16-0.153-0.243c-0.096-0.109-0.186-0.23-0.319-0.352c-0.128-0.121-0.288-0.217-0.447-0.332
	c-0.191-0.102-0.384-0.211-0.601-0.3c-0.236-0.083-0.46-0.179-0.729-0.23l-0.383-0.089c-0.128-0.025-0.269-0.039-0.402-0.051
	c-0.275-0.044-0.543-0.064-0.811-0.057c-0.274,0-0.549-0.02-0.805,0.013c-0.256,0.019-0.492,0.044-0.716,0.07
	c-0.46,0.025-0.823,0.134-1.086,0.179c-0.275,0.051-0.421,0.083-0.421,0.083s0.141-0.064,0.396-0.166
	c0.243-0.096,0.588-0.281,1.041-0.415c0.23-0.064,0.479-0.141,0.735-0.217c0.268-0.096,0.562-0.128,0.868-0.198
	c0.294-0.07,0.613-0.102,0.945-0.121c0.166-0.013,0.332-0.032,0.505-0.039l0.498,0.006c0.352,0,0.696,0.064,1.028,0.103
	c0.332,0.038,0.664,0.146,0.965,0.236c0.3,0.102,0.594,0.21,0.85,0.357c0.262,0.141,0.479,0.294,0.689,0.435
	c0.179,0.153,0.352,0.3,0.485,0.454c0.128,0.134,0.23,0.281,0.307,0.39c0.064,0.096,0.115,0.16,0.147,0.243
	c0.191-0.02,0.39-0.026,0.587-0.026c0.665,0.006,1.336,0.006,2.019,0.077c0.671,0.07,1.367,0.134,2.051,0.281
	c1.355,0.281,2.721,0.703,4.012,1.309c0.46,0.236,0.945,0.46,1.393,0.728c-0.269-1.367-1.067-3.302-3.073-5.001
	c-1.954-1.718-5.205-3.053-8.948-2.906c-3.016,0.102-6.196,1.124-8.937,2.638c-2.778,1.488-5.168,3.456-7.071,5.353
	c-1.903,1.916-3.347,3.769-4.292,5.148c-0.945,1.373-1.425,2.255-1.425,2.255s0.977-0.269,2.549-0.62
	C196.509,95.384,198.693,94.95,201.069,94.592z"/>
<g>
	<g>
		<path style="fill:#0F0F0F;" d="M162.933,337.152v-0.179c-0.243,0.278-0.482,0.504-0.719,0.679
			c-0.236,0.175-0.492,0.307-0.768,0.397c-0.276,0.09-0.577,0.136-0.904,0.136c-0.433,0-0.833-0.092-1.203-0.273
			c-0.368-0.185-0.688-0.446-0.956-0.786c-0.27-0.339-0.474-0.739-0.613-1.198c-0.14-0.459-0.209-0.955-0.209-1.491
			c0-1.129,0.276-2.01,0.829-2.643c0.551-0.631,1.277-0.945,2.178-0.945c0.521,0,0.959,0.088,1.318,0.268
			c0.358,0.178,0.706,0.454,1.046,0.825v-2.67c0-0.371,0.074-0.651,0.222-0.843c0.148-0.189,0.359-0.284,0.632-0.284
			c0.274,0,0.485,0.088,0.633,0.263c0.148,0.174,0.222,0.432,0.222,0.772v7.974c0,0.345-0.079,0.604-0.239,0.774
			c-0.159,0.173-0.364,0.259-0.616,0.259c-0.247,0-0.451-0.089-0.611-0.267C163.014,337.739,162.933,337.482,162.933,337.152z
			 M159.376,334.496c0,0.492,0.075,0.907,0.229,1.252c0.152,0.345,0.361,0.604,0.625,0.777c0.264,0.177,0.555,0.263,0.869,0.263
			c0.317,0,0.607-0.083,0.87-0.248c0.263-0.166,0.473-0.419,0.631-0.762c0.155-0.342,0.234-0.768,0.234-1.282
			c0-0.482-0.079-0.895-0.234-1.241c-0.158-0.347-0.369-0.612-0.637-0.795c-0.268-0.184-0.56-0.275-0.877-0.275
			c-0.331,0-0.627,0.093-0.887,0.282c-0.26,0.188-0.463,0.456-0.605,0.808C159.448,333.626,159.376,334.032,159.376,334.496z"/>
		<path style="fill:#0F0F0F;" d="M171.502,334.953h-3.536c0.004,0.411,0.086,0.773,0.248,1.087c0.162,0.313,0.375,0.549,0.643,0.708
			c0.267,0.159,0.562,0.239,0.884,0.239c0.216,0,0.414-0.026,0.592-0.075c0.179-0.051,0.352-0.133,0.52-0.239
			c0.168-0.109,0.322-0.226,0.464-0.349c0.141-0.124,0.324-0.291,0.549-0.502c0.092-0.08,0.225-0.121,0.397-0.121
			c0.185,0,0.335,0.053,0.45,0.152c0.115,0.102,0.173,0.246,0.173,0.432c0,0.162-0.064,0.354-0.192,0.573
			c-0.129,0.218-0.322,0.429-0.58,0.628c-0.258,0.201-0.583,0.367-0.974,0.501c-0.391,0.132-0.839,0.198-1.348,0.198
			c-1.161,0-2.064-0.332-2.708-0.994c-0.645-0.661-0.967-1.56-0.967-2.695c0-0.532,0.08-1.029,0.239-1.486
			c0.159-0.456,0.39-0.85,0.695-1.176c0.305-0.324,0.68-0.576,1.126-0.751c0.446-0.174,0.94-0.263,1.483-0.263
			c0.706,0,1.313,0.149,1.817,0.447c0.506,0.299,0.884,0.684,1.137,1.155c0.252,0.473,0.378,0.955,0.378,1.444
			c0,0.455-0.131,0.75-0.392,0.886C172.341,334.887,171.975,334.953,171.502,334.953z M167.966,333.927h3.278
			c-0.044-0.617-0.211-1.08-0.501-1.386c-0.289-0.308-0.669-0.462-1.142-0.462c-0.45,0-0.82,0.155-1.109,0.468
			C168.204,332.858,168.027,333.317,167.966,333.927z"/>
		<path style="fill:#0F0F0F;" d="M180.337,335.822c0,0.497-0.123,0.926-0.365,1.28c-0.243,0.357-0.601,0.625-1.076,0.81
			c-0.474,0.182-1.053,0.273-1.732,0.273c-0.649,0-1.206-0.1-1.67-0.298c-0.464-0.199-0.806-0.447-1.027-0.745
			c-0.22-0.297-0.331-0.598-0.331-0.898c0-0.197,0.071-0.368,0.212-0.509c0.142-0.141,0.32-0.213,0.537-0.213
			c0.19,0,0.335,0.048,0.437,0.14c0.102,0.093,0.199,0.223,0.291,0.391c0.186,0.322,0.407,0.564,0.665,0.722
			c0.259,0.159,0.611,0.238,1.057,0.238c0.362,0,0.659-0.08,0.891-0.242c0.232-0.159,0.348-0.345,0.348-0.551
			c0-0.319-0.12-0.552-0.36-0.697c-0.242-0.145-0.637-0.285-1.189-0.416c-0.623-0.155-1.129-0.316-1.52-0.487
			c-0.39-0.17-0.703-0.394-0.937-0.671c-0.233-0.279-0.35-0.622-0.35-1.029c0-0.36,0.107-0.703,0.323-1.025
			c0.215-0.321,0.536-0.578,0.956-0.771c0.422-0.192,0.932-0.287,1.527-0.287c0.468,0,0.888,0.048,1.262,0.143
			c0.373,0.1,0.685,0.231,0.934,0.393c0.249,0.164,0.439,0.344,0.569,0.542c0.13,0.201,0.196,0.395,0.196,0.584
			c0,0.207-0.069,0.377-0.209,0.509c-0.139,0.132-0.337,0.199-0.593,0.199c-0.186,0-0.343-0.053-0.473-0.158
			c-0.13-0.107-0.28-0.266-0.448-0.477c-0.136-0.177-0.297-0.319-0.482-0.426c-0.186-0.105-0.437-0.158-0.755-0.158
			c-0.327,0-0.598,0.07-0.814,0.211c-0.216,0.137-0.325,0.311-0.325,0.518c0,0.189,0.08,0.347,0.239,0.467
			c0.158,0.122,0.373,0.222,0.643,0.302c0.268,0.08,0.64,0.178,1.111,0.292c0.562,0.137,1.019,0.3,1.376,0.49
			c0.355,0.19,0.624,0.413,0.807,0.671C180.245,335.195,180.337,335.49,180.337,335.822z"/>
		<path style="fill:#0F0F0F;" d="M182.781,329.993c-0.253,0-0.468-0.078-0.646-0.232c-0.18-0.152-0.268-0.371-0.268-0.654
			c0-0.257,0.091-0.468,0.275-0.633c0.182-0.166,0.396-0.248,0.639-0.248c0.232,0,0.44,0.074,0.622,0.224
			c0.181,0.151,0.271,0.37,0.271,0.657c0,0.276-0.088,0.495-0.264,0.652C183.233,329.914,183.024,329.993,182.781,329.993z
			 M183.675,331.859v5.228c0,0.36-0.086,0.635-0.258,0.821c-0.172,0.186-0.391,0.277-0.656,0.277c-0.265,0-0.48-0.095-0.646-0.286
			c-0.165-0.189-0.247-0.46-0.247-0.813v-5.174c0-0.357,0.082-0.627,0.247-0.808c0.166-0.181,0.381-0.271,0.646-0.271
			c0.265,0,0.483,0.09,0.656,0.271C183.588,331.286,183.675,331.539,183.675,331.859z"/>
		<path style="fill:#0F0F0F;" d="M192.192,332.159v5.251c0,0.601-0.064,1.117-0.193,1.55c-0.127,0.434-0.333,0.79-0.616,1.073
			c-0.282,0.282-0.652,0.492-1.109,0.629c-0.458,0.137-1.026,0.205-1.705,0.205c-0.623,0-1.179-0.087-1.67-0.261
			c-0.49-0.176-0.867-0.4-1.133-0.676c-0.265-0.276-0.396-0.56-0.396-0.851c0-0.222,0.075-0.401,0.225-0.54
			c0.15-0.139,0.33-0.209,0.543-0.209c0.264,0,0.496,0.117,0.695,0.351c0.098,0.12,0.198,0.24,0.302,0.361
			c0.104,0.121,0.218,0.225,0.344,0.311c0.126,0.087,0.277,0.149,0.453,0.192c0.177,0.041,0.38,0.063,0.609,0.063
			c0.468,0,0.832-0.065,1.09-0.195c0.258-0.131,0.439-0.312,0.543-0.546c0.104-0.235,0.164-0.485,0.182-0.753
			c0.017-0.266,0.031-0.695,0.041-1.287c-0.279,0.389-0.6,0.684-0.965,0.887c-0.364,0.203-0.797,0.305-1.301,0.305
			c-0.604,0-1.133-0.153-1.586-0.463c-0.453-0.31-0.8-0.741-1.043-1.298c-0.242-0.558-0.364-1.2-0.364-1.93
			c0-0.541,0.075-1.031,0.222-1.468c0.148-0.438,0.358-0.807,0.632-1.107c0.273-0.301,0.59-0.526,0.947-0.678
			c0.357-0.152,0.751-0.228,1.18-0.228c0.511,0,0.956,0.097,1.33,0.295c0.375,0.195,0.724,0.503,1.047,0.922v-0.244
			c0-0.311,0.077-0.556,0.231-0.728c0.154-0.173,0.352-0.258,0.596-0.258c0.348,0,0.58,0.113,0.695,0.341
			C192.134,331.402,192.192,331.73,192.192,332.159z M186.952,334.45c0,0.733,0.161,1.289,0.481,1.663
			c0.32,0.374,0.734,0.561,1.242,0.561c0.3,0,0.585-0.08,0.851-0.24c0.268-0.161,0.486-0.405,0.653-0.729
			c0.169-0.325,0.251-0.717,0.251-1.183c0-0.737-0.163-1.31-0.487-1.722c-0.324-0.41-0.752-0.615-1.282-0.615
			c-0.517,0-0.931,0.195-1.242,0.59C187.108,333.168,186.952,333.726,186.952,334.45z"/>
		<path style="fill:#0F0F0F;" d="M195.663,331.834v0.22c0.318-0.421,0.665-0.729,1.043-0.925c0.376-0.195,0.811-0.294,1.3-0.294
			c0.477,0,0.903,0.103,1.279,0.31c0.374,0.209,0.656,0.502,0.841,0.883c0.119,0.22,0.196,0.458,0.231,0.714
			c0.036,0.257,0.053,0.584,0.053,0.98v3.365c0,0.36-0.083,0.635-0.248,0.821c-0.165,0.186-0.381,0.277-0.645,0.277
			c-0.27,0-0.489-0.095-0.656-0.286c-0.168-0.189-0.251-0.46-0.251-0.813v-3.015c0-0.595-0.083-1.051-0.248-1.368
			c-0.166-0.315-0.496-0.472-0.99-0.472c-0.323,0-0.616,0.096-0.882,0.288c-0.264,0.189-0.459,0.454-0.583,0.79
			c-0.088,0.271-0.132,0.775-0.132,1.512v2.265c0,0.366-0.086,0.641-0.255,0.825c-0.171,0.182-0.391,0.273-0.659,0.273
			c-0.26,0-0.474-0.095-0.643-0.286c-0.167-0.189-0.251-0.46-0.251-0.813v-5.228c0-0.343,0.074-0.6,0.225-0.77
			c0.149-0.171,0.355-0.255,0.616-0.255c0.158,0,0.302,0.037,0.429,0.112c0.127,0.075,0.232,0.188,0.308,0.338
			C195.623,331.435,195.663,331.617,195.663,331.834z"/>
		<path style="fill:#0F0F0F;" d="M207.258,334.953h-3.536c0.004,0.411,0.086,0.773,0.248,1.087c0.161,0.313,0.375,0.549,0.642,0.708
			c0.267,0.159,0.563,0.239,0.885,0.239c0.216,0,0.414-0.026,0.593-0.075c0.178-0.051,0.352-0.133,0.52-0.239
			c0.168-0.109,0.322-0.226,0.464-0.349c0.142-0.124,0.325-0.291,0.549-0.502c0.093-0.08,0.226-0.121,0.397-0.121
			c0.187,0,0.335,0.053,0.451,0.152c0.115,0.102,0.172,0.246,0.172,0.432c0,0.162-0.063,0.354-0.192,0.573
			c-0.128,0.218-0.321,0.429-0.58,0.628c-0.257,0.201-0.582,0.367-0.973,0.501c-0.391,0.132-0.84,0.198-1.347,0.198
			c-1.162,0-2.064-0.332-2.71-0.994c-0.644-0.661-0.967-1.56-0.967-2.695c0-0.532,0.081-1.029,0.239-1.486
			c0.159-0.456,0.391-0.85,0.697-1.176c0.304-0.324,0.678-0.576,1.124-0.751c0.447-0.174,0.94-0.263,1.484-0.263
			c0.706,0,1.312,0.149,1.817,0.447c0.505,0.299,0.884,0.684,1.137,1.155c0.251,0.473,0.377,0.955,0.377,1.444
			c0,0.455-0.131,0.75-0.39,0.886C208.097,334.887,207.731,334.953,207.258,334.953z M203.722,333.927h3.277
			c-0.044-0.617-0.211-1.08-0.501-1.386c-0.289-0.308-0.67-0.462-1.142-0.462c-0.45,0-0.821,0.155-1.109,0.468
			C203.959,332.858,203.783,333.317,203.722,333.927z"/>
		<path style="fill:#0F0F0F;" d="M215.225,337.152v-0.179c-0.243,0.278-0.481,0.504-0.719,0.679
			c-0.237,0.175-0.493,0.307-0.768,0.397c-0.277,0.09-0.578,0.136-0.905,0.136c-0.433,0-0.833-0.092-1.202-0.273
			c-0.369-0.185-0.688-0.446-0.958-0.786c-0.268-0.339-0.473-0.739-0.612-1.198c-0.139-0.459-0.209-0.955-0.209-1.491
			c0-1.129,0.276-2.01,0.828-2.643c0.552-0.631,1.278-0.945,2.179-0.945c0.521,0,0.96,0.088,1.317,0.268
			c0.358,0.178,0.707,0.454,1.047,0.825v-2.67c0-0.371,0.074-0.651,0.222-0.843c0.148-0.189,0.357-0.284,0.632-0.284
			c0.274,0,0.483,0.088,0.633,0.263c0.148,0.174,0.221,0.432,0.221,0.772v7.974c0,0.345-0.079,0.604-0.238,0.774
			c-0.159,0.173-0.365,0.259-0.616,0.259c-0.247,0-0.452-0.089-0.613-0.267C215.306,337.739,215.225,337.482,215.225,337.152z
			 M211.669,334.496c0,0.492,0.077,0.907,0.228,1.252c0.153,0.345,0.361,0.604,0.627,0.777c0.264,0.177,0.553,0.263,0.866,0.263
			c0.32,0,0.609-0.083,0.873-0.248c0.261-0.166,0.472-0.419,0.628-0.762c0.158-0.342,0.237-0.768,0.237-1.282
			c0-0.482-0.079-0.895-0.237-1.241c-0.156-0.347-0.369-0.612-0.636-0.795c-0.266-0.184-0.56-0.275-0.877-0.275
			c-0.331,0-0.627,0.093-0.888,0.282c-0.261,0.188-0.462,0.456-0.606,0.808C211.74,333.626,211.669,334.032,211.669,334.496z"/>
		<path style="fill:#0F0F0F;" d="M223.809,329.179v2.763c0.339-0.355,0.686-0.625,1.039-0.813c0.354-0.189,0.79-0.28,1.313-0.28
			c0.6,0,1.126,0.142,1.579,0.427c0.452,0.283,0.803,0.696,1.053,1.237c0.25,0.541,0.374,1.183,0.374,1.924
			c0,0.549-0.069,1.05-0.208,1.507c-0.139,0.458-0.342,0.855-0.606,1.188c-0.265,0.335-0.587,0.596-0.963,0.78
			c-0.378,0.182-0.794,0.273-1.249,0.273c-0.278,0-0.54-0.033-0.785-0.1c-0.245-0.065-0.453-0.151-0.626-0.261
			c-0.172-0.108-0.319-0.22-0.442-0.334c-0.121-0.114-0.28-0.287-0.479-0.517v0.179c0,0.341-0.081,0.597-0.246,0.772
			c-0.163,0.174-0.371,0.261-0.623,0.261c-0.255,0-0.46-0.087-0.613-0.261c-0.152-0.176-0.229-0.432-0.229-0.772v-7.895
			c0-0.365,0.075-0.644,0.223-0.831c0.148-0.188,0.354-0.282,0.619-0.282c0.278,0,0.492,0.09,0.643,0.27
			C223.733,328.594,223.809,328.848,223.809,329.179z M223.895,334.55c0,0.721,0.165,1.272,0.493,1.658
			c0.33,0.387,0.76,0.58,1.295,0.58c0.454,0,0.845-0.197,1.176-0.594c0.328-0.393,0.493-0.961,0.493-1.698
			c0-0.478-0.068-0.886-0.205-1.23c-0.137-0.347-0.332-0.61-0.584-0.798c-0.25-0.19-0.545-0.282-0.88-0.282
			c-0.345,0-0.651,0.093-0.92,0.282c-0.27,0.188-0.481,0.459-0.637,0.814C223.971,333.637,223.895,334.06,223.895,334.55z"/>
		<path style="fill:#0F0F0F;" d="M232.107,338.41l0.165-0.403l-2.226-5.604c-0.137-0.322-0.205-0.555-0.205-0.701
			c0-0.154,0.04-0.299,0.12-0.431c0.079-0.133,0.189-0.238,0.327-0.318c0.14-0.078,0.284-0.118,0.435-0.118
			c0.261,0,0.457,0.083,0.589,0.248c0.133,0.166,0.251,0.401,0.353,0.711l1.528,4.45l1.451-4.138
			c0.114-0.338,0.219-0.597,0.311-0.79c0.093-0.188,0.191-0.316,0.296-0.383c0.103-0.067,0.25-0.099,0.439-0.099
			c0.137,0,0.268,0.036,0.393,0.108c0.127,0.073,0.223,0.171,0.291,0.295c0.069,0.124,0.104,0.253,0.104,0.391
			c-0.018,0.083-0.046,0.203-0.085,0.357c-0.041,0.155-0.09,0.312-0.146,0.472l-2.357,6.171c-0.203,0.544-0.402,0.969-0.598,1.278
			c-0.192,0.309-0.45,0.546-0.77,0.713c-0.319,0.165-0.752,0.247-1.294,0.247c-0.53,0-0.928-0.057-1.192-0.172
			c-0.265-0.114-0.397-0.323-0.397-0.629c0-0.208,0.062-0.367,0.189-0.479c0.126-0.114,0.311-0.17,0.56-0.17
			c0.096,0,0.192,0.014,0.285,0.04c0.115,0.027,0.214,0.039,0.298,0.039c0.208,0,0.37-0.031,0.49-0.093
			c0.119-0.06,0.227-0.168,0.321-0.321C231.873,338.931,231.983,338.706,232.107,338.41z"/>
	</g>
	<g>
		<path style="fill:#0F0F0F;" d="M265.564,330.993h0.431v-0.542c0-0.566,0.072-1.016,0.216-1.349
			c0.142-0.333,0.387-0.577,0.729-0.729c0.343-0.153,0.811-0.229,1.407-0.229c1.055,0,1.583,0.259,1.583,0.775
			c0,0.169-0.056,0.313-0.166,0.432c-0.109,0.118-0.24,0.179-0.392,0.179c-0.071,0-0.191-0.015-0.364-0.041
			c-0.172-0.025-0.316-0.038-0.437-0.038c-0.326,0-0.535,0.096-0.628,0.286c-0.094,0.194-0.14,0.468-0.14,0.825v0.431h0.443
			c0.689,0,1.033,0.209,1.033,0.622c0,0.296-0.092,0.484-0.274,0.564c-0.184,0.079-0.436,0.119-0.759,0.119h-0.443v4.789
			c0,0.357-0.087,0.629-0.256,0.817c-0.17,0.189-0.391,0.281-0.66,0.281c-0.255,0-0.467-0.093-0.638-0.281
			c-0.17-0.189-0.255-0.46-0.255-0.817v-4.789h-0.497c-0.27,0-0.476-0.06-0.621-0.184c-0.148-0.119-0.22-0.277-0.22-0.472
			C264.656,331.21,264.959,330.993,265.564,330.993z"/>
		<path style="fill:#0F0F0F;" d="M272.022,335.576v1.511c0,0.366-0.088,0.641-0.26,0.825c-0.173,0.182-0.39,0.273-0.656,0.273
			c-0.259,0-0.474-0.092-0.641-0.277c-0.168-0.186-0.252-0.461-0.252-0.821v-5.033c0-0.813,0.293-1.219,0.879-1.219
			c0.303,0,0.518,0.095,0.65,0.284c0.132,0.189,0.204,0.47,0.219,0.842c0.217-0.372,0.438-0.652,0.665-0.842
			c0.228-0.189,0.532-0.284,0.911-0.284s0.748,0.095,1.105,0.284c0.358,0.189,0.536,0.441,0.536,0.755
			c0,0.221-0.076,0.402-0.228,0.548c-0.152,0.141-0.316,0.213-0.493,0.213c-0.065,0-0.227-0.039-0.48-0.122
			c-0.255-0.082-0.478-0.122-0.673-0.122c-0.266,0-0.482,0.069-0.648,0.209c-0.168,0.139-0.299,0.345-0.39,0.62
			c-0.094,0.272-0.158,0.599-0.193,0.976C272.038,334.573,272.022,335.034,272.022,335.576z"/>
		<path style="fill:#0F0F0F;" d="M280.875,334.953h-3.536c0.005,0.411,0.087,0.773,0.248,1.087c0.161,0.313,0.375,0.549,0.643,0.708
			c0.268,0.159,0.564,0.239,0.884,0.239c0.215,0,0.415-0.026,0.594-0.075c0.178-0.051,0.351-0.133,0.519-0.239
			c0.17-0.109,0.324-0.226,0.465-0.349c0.142-0.124,0.325-0.291,0.549-0.502c0.094-0.08,0.228-0.121,0.399-0.121
			c0.184,0,0.334,0.053,0.448,0.152c0.115,0.102,0.172,0.246,0.172,0.432c0,0.162-0.064,0.354-0.191,0.573
			c-0.13,0.218-0.321,0.429-0.578,0.628c-0.259,0.201-0.583,0.367-0.976,0.501c-0.39,0.132-0.84,0.198-1.347,0.198
			c-1.162,0-2.065-0.332-2.708-0.994c-0.645-0.661-0.968-1.56-0.968-2.695c0-0.532,0.08-1.029,0.238-1.486
			c0.159-0.456,0.392-0.85,0.694-1.176c0.307-0.324,0.683-0.576,1.129-0.751c0.445-0.174,0.938-0.263,1.482-0.263
			c0.705,0,1.311,0.149,1.816,0.447c0.506,0.299,0.886,0.684,1.136,1.155c0.251,0.473,0.379,0.955,0.379,1.444
			c0,0.455-0.131,0.75-0.391,0.886C281.713,334.887,281.349,334.953,280.875,334.953z M277.339,333.927h3.277
			c-0.044-0.617-0.209-1.08-0.499-1.386c-0.289-0.308-0.67-0.462-1.143-0.462c-0.45,0-0.82,0.155-1.108,0.468
			C277.576,332.858,277.401,333.317,277.339,333.927z"/>
		<path style="fill:#0F0F0F;" d="M288.935,334.953h-3.537c0.004,0.411,0.087,0.773,0.248,1.087c0.161,0.313,0.376,0.549,0.644,0.708
			c0.268,0.159,0.561,0.239,0.884,0.239c0.216,0,0.414-0.026,0.591-0.075c0.18-0.051,0.354-0.133,0.522-0.239
			c0.168-0.109,0.323-0.226,0.464-0.349c0.141-0.124,0.326-0.291,0.55-0.502c0.093-0.08,0.224-0.121,0.396-0.121
			c0.186,0,0.336,0.053,0.45,0.152c0.114,0.102,0.172,0.246,0.172,0.432c0,0.162-0.064,0.354-0.19,0.573
			c-0.129,0.218-0.321,0.429-0.581,0.628c-0.258,0.201-0.582,0.367-0.973,0.501c-0.391,0.132-0.84,0.198-1.348,0.198
			c-1.16,0-2.064-0.332-2.709-0.994c-0.644-0.661-0.965-1.56-0.965-2.695c0-0.532,0.078-1.029,0.235-1.486
			c0.16-0.456,0.392-0.85,0.695-1.176c0.306-0.324,0.681-0.576,1.127-0.751c0.446-0.174,0.941-0.263,1.482-0.263
			c0.708,0,1.314,0.149,1.819,0.447c0.505,0.299,0.884,0.684,1.136,1.155c0.253,0.473,0.377,0.955,0.377,1.444
			c0,0.455-0.129,0.75-0.392,0.886C289.775,334.887,289.408,334.953,288.935,334.953z M285.398,333.927h3.278
			c-0.044-0.617-0.212-1.08-0.5-1.386c-0.289-0.308-0.67-0.462-1.143-0.462c-0.451,0-0.819,0.155-1.109,0.468
			C285.636,332.858,285.459,333.317,285.398,333.927z"/>
		<path style="fill:#0F0F0F;" d="M293.439,331.849v0.217c0.341-0.419,0.694-0.727,1.059-0.922c0.366-0.198,0.781-0.295,1.244-0.295
			c0.557,0,1.068,0.143,1.536,0.43c0.47,0.288,0.841,0.706,1.112,1.258c0.271,0.552,0.406,1.204,0.406,1.96
			c0,0.557-0.08,1.067-0.236,1.533c-0.155,0.467-0.371,0.857-0.645,1.172c-0.274,0.316-0.597,0.56-0.97,0.729
			c-0.373,0.17-0.775,0.255-1.204,0.255c-0.516,0-0.948-0.104-1.301-0.313c-0.351-0.206-0.686-0.51-1.003-0.913v2.716
			c0,0.795-0.29,1.191-0.866,1.191c-0.342,0-0.566-0.102-0.677-0.308c-0.11-0.205-0.164-0.505-0.164-0.897v-7.803
			c0-0.343,0.076-0.6,0.223-0.77c0.15-0.171,0.356-0.255,0.618-0.255c0.255,0,0.464,0.085,0.625,0.261
			C293.358,331.271,293.439,331.522,293.439,331.849z M296.981,334.477c0-0.477-0.072-0.886-0.218-1.228
			c-0.147-0.344-0.348-0.606-0.607-0.789c-0.258-0.184-0.543-0.275-0.857-0.275c-0.498,0-0.92,0.195-1.262,0.59
			c-0.343,0.393-0.514,0.971-0.514,1.735c0,0.719,0.171,1.277,0.51,1.678c0.341,0.4,0.763,0.6,1.266,0.6
			c0.301,0,0.579-0.086,0.834-0.263c0.256-0.174,0.46-0.435,0.616-0.783C296.904,335.395,296.981,334.973,296.981,334.477z"/>
		<path style="fill:#0F0F0F;" d="M301.161,329.993c-0.252,0-0.469-0.078-0.646-0.232c-0.178-0.152-0.268-0.371-0.268-0.654
			c0-0.257,0.091-0.468,0.273-0.633c0.183-0.166,0.397-0.248,0.64-0.248c0.233,0,0.441,0.074,0.622,0.224
			c0.181,0.151,0.27,0.37,0.27,0.657c0,0.276-0.088,0.495-0.263,0.652C301.613,329.914,301.404,329.993,301.161,329.993z
			 M302.054,331.859v5.228c0,0.36-0.085,0.635-0.258,0.821c-0.172,0.186-0.39,0.277-0.655,0.277c-0.266,0-0.479-0.095-0.646-0.286
			c-0.166-0.189-0.247-0.46-0.247-0.813v-5.174c0-0.357,0.081-0.627,0.247-0.808c0.167-0.181,0.38-0.271,0.646-0.271
			c0.266,0,0.483,0.09,0.655,0.271C301.969,331.286,302.054,331.539,302.054,331.859z"/>
		<path style="fill:#0F0F0F;" d="M308.426,337.357l-1.596-2.623l-0.98,0.928v1.438c0,0.348-0.092,0.616-0.274,0.805
			c-0.185,0.189-0.395,0.281-0.632,0.281c-0.28,0-0.497-0.092-0.656-0.277c-0.159-0.186-0.238-0.461-0.238-0.821v-7.71
			c0-0.401,0.075-0.708,0.232-0.917c0.154-0.21,0.376-0.315,0.663-0.315c0.277,0,0.498,0.096,0.661,0.284
			c0.163,0.191,0.245,0.472,0.245,0.843v4.385l2.033-2.133c0.253-0.266,0.442-0.445,0.575-0.545
			c0.134-0.096,0.293-0.143,0.484-0.143c0.227,0,0.413,0.071,0.563,0.215c0.15,0.144,0.228,0.323,0.228,0.539
			c0,0.266-0.246,0.619-0.738,1.06l-0.958,0.881l1.853,2.915c0.139,0.215,0.236,0.38,0.295,0.492c0.06,0.112,0.09,0.222,0.09,0.322
			c0,0.287-0.079,0.513-0.236,0.679c-0.155,0.165-0.363,0.248-0.617,0.248c-0.22,0-0.392-0.058-0.511-0.179
			C308.79,337.888,308.629,337.672,308.426,337.357z"/>
		<path style="fill:#0F0F0F;" d="M312.896,338.185c-0.273,0-0.511-0.088-0.709-0.265c-0.197-0.177-0.299-0.424-0.299-0.743
			c0-0.268,0.096-0.5,0.284-0.693c0.191-0.195,0.427-0.292,0.704-0.292c0.277,0,0.514,0.096,0.712,0.288
			c0.195,0.192,0.294,0.425,0.294,0.697c0,0.315-0.099,0.562-0.294,0.74C313.391,338.097,313.16,338.185,312.896,338.185z"/>
		<path style="fill:#0F0F0F;" d="M322.428,335.946c0,0.225-0.069,0.466-0.205,0.723c-0.133,0.255-0.339,0.501-0.613,0.732
			c-0.276,0.232-0.625,0.419-1.043,0.559c-0.421,0.142-0.893,0.212-1.42,0.212c-1.114,0-1.987-0.325-2.614-0.977
			c-0.626-0.65-0.939-1.523-0.939-2.62c0-0.741,0.142-1.396,0.429-1.966c0.287-0.57,0.703-1.011,1.247-1.321
			c0.541-0.311,1.192-0.468,1.946-0.468c0.467,0,0.896,0.069,1.287,0.206c0.391,0.137,0.723,0.313,0.993,0.529
			c0.272,0.217,0.48,0.447,0.624,0.692c0.143,0.245,0.214,0.475,0.214,0.687c0,0.216-0.081,0.399-0.242,0.549
			c-0.161,0.15-0.355,0.225-0.585,0.225c-0.15,0-0.276-0.037-0.375-0.116c-0.099-0.076-0.21-0.2-0.334-0.372
			c-0.22-0.336-0.45-0.589-0.692-0.757c-0.24-0.167-0.546-0.251-0.917-0.251c-0.533,0-0.965,0.21-1.291,0.626
			c-0.326,0.417-0.491,0.988-0.491,1.712c0,0.34,0.041,0.652,0.126,0.936c0.086,0.284,0.207,0.528,0.365,0.729
			c0.158,0.202,0.351,0.354,0.576,0.458c0.225,0.102,0.474,0.155,0.742,0.155c0.36,0,0.671-0.084,0.93-0.252
			c0.259-0.168,0.486-0.423,0.686-0.769c0.111-0.202,0.23-0.362,0.358-0.476c0.129-0.115,0.284-0.172,0.47-0.172
			c0.221,0,0.404,0.083,0.549,0.25C322.352,335.579,322.428,335.758,322.428,335.946z"/>
		<path style="fill:#0F0F0F;" d="M330.77,334.511c0,0.537-0.084,1.034-0.251,1.489c-0.167,0.456-0.412,0.846-0.729,1.171
			c-0.317,0.327-0.697,0.578-1.139,0.754c-0.442,0.174-0.939,0.261-1.49,0.261c-0.547,0-1.039-0.088-1.478-0.265
			c-0.435-0.177-0.815-0.428-1.135-0.758c-0.32-0.331-0.563-0.719-0.728-1.166c-0.166-0.448-0.25-0.944-0.25-1.486
			c0-0.547,0.084-1.05,0.253-1.505c0.166-0.455,0.407-0.843,0.722-1.164c0.313-0.322,0.692-0.571,1.138-0.746
			c0.448-0.176,0.939-0.261,1.478-0.261c0.548,0,1.044,0.088,1.49,0.264c0.446,0.178,0.828,0.429,1.146,0.756
			c0.318,0.326,0.56,0.716,0.726,1.167C330.686,333.471,330.77,333.967,330.77,334.511z M328.955,334.511
			c0-0.738-0.162-1.313-0.485-1.722c-0.326-0.412-0.761-0.617-1.309-0.617c-0.353,0-0.664,0.092-0.935,0.275
			c-0.267,0.184-0.477,0.454-0.622,0.811c-0.146,0.357-0.219,0.774-0.219,1.253c0,0.472,0.071,0.884,0.216,1.237
			c0.143,0.354,0.349,0.624,0.615,0.812c0.268,0.188,0.582,0.281,0.944,0.281c0.548,0,0.982-0.206,1.309-0.619
			C328.793,335.81,328.955,335.237,328.955,334.511z"/>
		<path style="fill:#0F0F0F;" d="M338.208,334.643v2.403c0,0.38-0.087,0.664-0.258,0.854c-0.172,0.191-0.4,0.286-0.683,0.286
			c-0.273,0-0.496-0.095-0.665-0.286c-0.17-0.189-0.256-0.474-0.256-0.854v-2.881c0-0.455-0.016-0.807-0.046-1.059
			c-0.03-0.252-0.115-0.458-0.252-0.62c-0.136-0.161-0.353-0.24-0.648-0.24c-0.593,0-0.982,0.202-1.168,0.608
			c-0.189,0.405-0.283,0.989-0.283,1.749v2.442c0,0.377-0.086,0.66-0.255,0.851c-0.171,0.193-0.395,0.289-0.672,0.289
			c-0.272,0-0.498-0.096-0.673-0.289c-0.175-0.19-0.261-0.474-0.261-0.851v-5.172c0-0.339,0.078-0.598,0.235-0.775
			c0.155-0.176,0.362-0.264,0.618-0.264c0.248,0,0.454,0.083,0.619,0.248c0.166,0.166,0.25,0.393,0.25,0.686v0.173
			c0.313-0.375,0.648-0.653,1.005-0.828c0.359-0.177,0.756-0.265,1.192-0.265c0.454,0,0.847,0.089,1.172,0.271
			c0.327,0.182,0.598,0.454,0.809,0.822c0.305-0.371,0.632-0.647,0.979-0.825c0.349-0.18,0.736-0.268,1.161-0.268
			c0.493,0,0.92,0.096,1.276,0.29c0.358,0.195,0.624,0.473,0.801,0.834c0.156,0.329,0.232,0.842,0.232,1.544v3.529
			c0,0.38-0.087,0.664-0.26,0.854c-0.171,0.191-0.397,0.286-0.681,0.286c-0.272,0-0.498-0.096-0.672-0.289
			c-0.175-0.19-0.262-0.474-0.262-0.851v-3.039c0-0.388-0.018-0.699-0.048-0.936c-0.036-0.232-0.125-0.429-0.271-0.589
			c-0.144-0.158-0.364-0.236-0.661-0.236c-0.237,0-0.464,0.07-0.678,0.212c-0.213,0.142-0.381,0.331-0.502,0.568
			C338.274,333.331,338.208,333.868,338.208,334.643z"/>
	</g>
	<g>
		<path style="fill:#0F0F0F;" d="M251.319,326.173c-0.039-0.116-0.078-0.23-0.117-0.348c0.608-0.055,1.016-0.782,0.718-1.322
			c-0.268-0.608-1.205-0.684-1.567-0.126c-0.387,0.493-0.085,1.273,0.509,1.43c0.035,0.125,0.07,0.252,0.106,0.377
			c-0.91,0.057-1.838,0.26-2.601,0.78c0.077,0.222,0.155,0.443,0.233,0.665c1.54-0.675,3.269-0.526,4.895-0.366
			c0.055-0.215,0.108-0.43,0.162-0.644C252.925,326.289,252.117,326.167,251.319,326.173z"/>
		<path style="fill:#0F0F0F;" d="M260.482,328.66c-0.245,0.125-0.291,0.415-0.276,0.663c-0.271,0.263-0.144,0.66-0.174,0.993
			c-0.061,0.185-0.282,0.205-0.436,0.275c-0.212-0.323-0.44-0.637-0.724-0.901l0.001-0.016c-0.31-0.292-0.645-0.554-1-0.786
			c-0.287,0.307-0.586,0.604-0.86,0.924c0.543,0.597,1.045,1.234,1.489,1.91c0.304,0.514,0.552,1.061,0.763,1.618
			c0.459-0.233,0.911-0.479,1.369-0.721c-0.241-0.559-0.518-1.103-0.811-1.64c0.202-0.108,0.475-0.216,0.506-0.479
			c0.024-0.293-0.041-0.609,0.136-0.866c0.353,0.231,0.892-0.031,0.896-0.461C261.407,328.728,260.848,328.407,260.482,328.66z"/>
		<path style="fill:#0F0F0F;" d="M258.003,331.984c-0.596-0.989-1.242-1.974-2.12-2.737c-1.015-0.894-2.332-1.495-3.699-1.488
			c-1.729-0.022-3.477,0.259-5.067,0.953c-1.499,0.658-2.803,1.83-3.463,3.35c-0.637,1.363-0.629,2.935-0.341,4.386
			c1.589,0.398,3.204,0.752,4.844,0.83c1.617,0.049,3.246,0.089,4.852-0.138c2.207-0.289,4.369-0.99,6.294-2.116
			C259.303,335.023,259.039,333.569,258.003,331.984z M250.191,333.939c-0.299,0.435-0.729,0.773-1.223,0.964
			c-0.929,0.346-2.06,0.11-2.728-0.633c-0.468-0.512-0.743-1.203-0.693-1.9c0.035-0.872,0.574-1.685,1.338-2.091
			c0.583-0.317,1.287-0.373,1.921-0.195c0.267,0.067,0.514,0.193,0.741,0.346c0.469,0.333,0.823,0.825,0.979,1.38
			C250.747,332.521,250.607,333.322,250.191,333.939z M256.887,332.369c-0.107,0.743-0.819,1.376-1.581,1.326
			c-0.441,0.037-0.866-0.172-1.165-0.482c-0.215-0.267-0.393-0.575-0.42-0.925c-0.104-0.756,0.428-1.536,1.169-1.716
			c0.326-0.093,0.666-0.043,0.988,0.032C256.573,330.853,257.031,331.64,256.887,332.369z"/>
		<path style="fill:#0F0F0F;" d="M243.673,329.772c-0.646,0.389-1.177,0.939-1.619,1.544c-0.131-0.237-0.169-0.524-0.338-0.74
			c-0.096-0.128-0.268-0.075-0.402-0.078c-0.171,0.02-0.338-0.027-0.499-0.077c0.188-0.266,0.14-0.675-0.152-0.847
			c-0.308-0.222-0.787-0.029-0.867,0.338c-0.131,0.404,0.298,0.809,0.693,0.702c0.21,0.309,0.589,0.259,0.91,0.272
			c0.146,0.252,0.257,0.527,0.443,0.756c-0.346,0.684-0.541,1.448-0.557,2.214c0.443,0.185,0.888,0.374,1.333,0.56
			c0.024-0.483,0.079-0.963,0.153-1.438c0.148-1.036,0.748-1.939,1.458-2.682C244.055,330.111,243.858,329.947,243.673,329.772z"/>
		<path style="fill:#0F0F0F;" d="M254.063,337.595c-1.64,0.357-3.329,0.461-5.004,0.388c-1.132-0.059-2.263-0.162-3.369-0.407
			c-0.785-0.16-1.552-0.387-2.323-0.607c0.123,0.986,0.521,1.93,1.089,2.74c0.672,0.944,1.568,1.811,2.687,2.159
			c0.87,0.234,1.911,0.534,3.701,0.503c1.48-0.027,2.936-0.215,4.237-0.767c0.836-0.361,1.623-0.851,2.296-1.466
			c0.585-0.55,1.041-1.235,1.355-1.974c0.306-0.693,0.582-1.942,0.552-2.583C257.684,336.493,255.889,337.287,254.063,337.595z"/>
	</g>
</g>
</svg>
